<?xml version="1.0" encoding="UTF-8" standalone="no"?>
<!-- Created with Inkscape (http://www.inkscape.org/) -->

<svg
   xmlns:dc="http://purl.org/dc/elements/1.1/"
   xmlns:cc="http://creativecommons.org/ns#"
   xmlns:rdf="http://www.w3.org/1999/02/22-rdf-syntax-ns#"
   xmlns:svg="http://www.w3.org/2000/svg"
   xmlns="http://www.w3.org/2000/svg"
   xmlns:sodipodi="http://sodipodi.sourceforge.net/DTD/sodipodi-0.dtd"
   xmlns:inkscape="http://www.inkscape.org/namespaces/inkscape"
   width="210mm"
   height="297mm"
   viewBox="0 0 210 297"
   version="1.1"
   id="svg8"
   inkscape:version="0.92.4 (5da689c313, 2019-01-14)"
   sodipodi:docname="icons.svg">
  <defs
     id="defs2" />
  <sodipodi:namedview
     id="base"
     pagecolor="#ffffff"
     bordercolor="#666666"
     borderopacity="1.0"
     inkscape:pageopacity="0.0"
     inkscape:pageshadow="2"
     inkscape:zoom="0.35"
     inkscape:cx="-75.714286"
     inkscape:cy="560"
     inkscape:document-units="mm"
     inkscape:current-layer="Outline"
     showgrid="false"
     inkscape:window-width="1920"
     inkscape:window-height="1137"
     inkscape:window-x="-8"
     inkscape:window-y="-8"
     inkscape:window-maximized="1" />
  <metadata
     id="metadata5">
    <rdf:RDF>
      <cc:Work
         rdf:about="">
        <dc:format>image/svg+xml</dc:format>
        <dc:type
           rdf:resource="http://purl.org/dc/dcmitype/StillImage" />
        <dc:title></dc:title>
      </cc:Work>
    </rdf:RDF>
  </metadata>
  <g
     inkscape:label="Layer 1"
     inkscape:groupmode="layer"
     id="layer1">
    <g
       id="Outline"
       transform="matrix(0.26458333,0,0,0.26458333,-262.76905,155.93929)">
      <g
         id="g4674"
         transform="matrix(1.859375,0,0,1.859375,108.52311,834.54541)"
         inkscape:export-xdpi="3.8318038"
         inkscape:export-ydpi="3.8318038"
         style="fill:#dbdee3">
        <path
           id="path4604"
           d="m -17.361971,-946.5143 -49.186134,-24.59307 -49.186135,24.59307 49.186135,24.59307 z"
           inkscape:connector-curvature="0"
           style="fill:#dbdee3;stroke-width:8.53333378" />
        <path
           id="path4606"
           d="m 61.451896,-830.30736 -51.200001,25.6 v 49.18613 l 51.200001,-25.6 z"
           inkscape:connector-curvature="0"
           style="fill:#dbdee3;stroke-width:8.53333378" />
        <path
           id="path4608"
           d="m 20.799095,-946.5143 49.186134,24.59307 49.186131,-24.59307 -49.186131,-24.59307 z"
           inkscape:connector-curvature="0"
           style="fill:#dbdee3;stroke-width:8.53333378" />
        <path
           id="path4610"
           d="m 78.518563,-857.92123 51.199997,-25.6 v -49.18614 l -51.199997,25.60001 z"
           inkscape:connector-curvature="0"
           style="fill:#dbdee3;stroke-width:8.53333378" />
        <path
           id="path4612"
           d="m -6.8147714,-932.70737 -51.2000006,25.60001 v 49.18613 l 51.2000006,-25.6 z"
           inkscape:connector-curvature="0"
           style="fill:#dbdee3;stroke-width:8.53333378" />
        <path
           id="path4614"
           d="m 61.451896,-907.10736 -51.200001,-25.60001 v 49.18614 l 51.200001,25.6 z"
           inkscape:connector-curvature="0"
           style="fill:#dbdee3;stroke-width:8.53333378" />
        <path
           id="path4616"
           d="m 50.896162,-844.1143 -49.1776,-24.59306 -49.186134,24.59306 49.186134,24.59307 z"
           inkscape:connector-curvature="0"
           style="fill:#dbdee3;stroke-width:8.53333378" />
        <path
           id="path4618"
           d="m -58.014772,-781.12123 51.2000006,25.6 v -49.18613 l -51.2000006,-25.6 z"
           inkscape:connector-curvature="0"
           style="fill:#dbdee3;stroke-width:8.53333378" />
        <path
           id="path4620"
           d="m -126.28144,-883.52123 51.200001,25.6 v -49.18613 l -51.200001,-25.60001 z"
           inkscape:connector-curvature="0"
           style="fill:#dbdee3;stroke-width:8.53333378" />
      </g>
      <g
         id="g4831"
         style="fill:#dbdee3"
         inkscape:export-filename="C:\Users\marx\audience_16.png"
         inkscape:export-xdpi="4.8000002"
         inkscape:export-ydpi="4.8000002">
        <circle
           id="circle4784"
           r="40"
           cy="16.71427"
           cx="316"
           style="fill:#dbdee3" />
        <circle
           id="circle4786"
           r="40"
           cy="16.71427"
           cx="156.00002"
           style="fill:#dbdee3" />
        <path
           id="path4788"
           d="m 271.00001,281.71427 c 0,8.284 6.716,15 15,15 h 60 c 8.284,0 15,-6.716 15,-15 v -55 h -90 z"
           inkscape:connector-curvature="0"
           style="fill:#dbdee3" />
        <path
           id="path4790"
           d="m 111.00001,281.71427 c 0,8.284 6.716,15 15,15 h 60 c 8.284,0 15,-6.716 15,-15 v -55 h -90 z"
           inkscape:connector-curvature="0"
           style="fill:#dbdee3" />
        <path
           id="path4794"
           d="m 316.00001,86.71427 c -18.404,0 -35.161,-7.15 -47.669,-18.804 -10.758,11.788 -17.331,27.527 -17.331,44.7 v 71.061 c 0,7.204 5.84,13.044 13.044,13.044 h 103.913 c 7.204,0 13.044,-5.84 13.044,-13.044 v -71.957 c 0,-16.938 -6.523,-32.373 -17.175,-43.954 -12.525,11.742 -29.345,18.954 -47.826,18.954 z"
           inkscape:connector-curvature="0"
           style="fill:#dbdee3" />
        <path
           id="path4798"
           d="m 156.00001,86.71427 c -18.404,0 -35.161,-7.15 -47.669,-18.804 -10.757998,11.788 -17.330998,27.527 -17.330998,44.7 v 71.061 c 0,7.204 5.84,13.044 13.043998,13.044 h 103.913 c 7.204,0 13.044,-5.84 13.044,-13.044 v -71.957 c 0,-16.938 -6.523,-32.373 -17.175,-43.954 -12.525,11.742 -29.345,18.954 -47.826,18.954 z"
           inkscape:connector-curvature="0"
           style="fill:#dbdee3" />
      </g>
      <g
         id="g4897"
         transform="translate(-907.23283,29.910424)"
         style="fill:#dbdee3"
         inkscape:export-filename="C:\Users\marx\settings_16.png"
         inkscape:export-xdpi="1.6646705"
         inkscape:export-ydpi="1.6646705">
        <g
           id="g4839"
           style="fill:#dbdee3">
	<path
   id="path4833"
   d="m 61.2,341.538 c 4.9,16.8 11.7,33 20.3,48.2 l -24.5,30.9 c -8,10.1 -7.1,24.5 1.9,33.6 l 42.2,42.2 c 9.1,9.1 23.5,9.899 33.6,1.899 l 30.7,-24.3 c 15.8,9.101 32.6,16.2 50.1,21.2 l 4.6,39.5 c 1.5,12.8 12.3,22.4 25.1,22.4 h 59.7 c 12.8,0 23.6,-9.601 25.1,-22.4 l 4.4,-38.1 c 18.8,-4.9 36.8,-12.2 53.7,-21.7 l 29.7,23.5 c 10.1,8 24.5,7.1 33.6,-1.9 l 42.2,-42.2 c 9.1,-9.1 9.9,-23.5 1.9,-33.6 l -23.1,-29.3 c 9.6,-16.601 17.1,-34.3 22.1,-52.8 l 35.6,-4.1 c 12.801,-1.5 22.4,-12.3 22.4,-25.1 v -59.7 c 0,-12.8 -9.6,-23.6 -22.4,-25.1 l -35.1,-4.1 c -4.801,-18.3 -12,-35.8 -21.199,-52.2 l 21.6,-27.3 c 8,-10.1 7.1,-24.5 -1.9,-33.6 l -42.1,-42.1 c -9.1,-9.1 -23.5,-9.9 -33.6,-1.9 l -26.5,21 c -17.2,-10.1 -35.601,-17.8 -54.9,-23 l -4,-34.3 c -1.5,-12.8 -12.3,-22.4 -25.1,-22.4 h -59.7 c -12.8,0 -23.6,9.6 -25.1,22.4 l -4,34.3 c -19.8,5.3 -38.7,13.3 -56.3,23.8 l -27.5,-21.8 c -10.1,-8 -24.5,-7.1 -33.6,1.9 l -42.2,42.2 c -9.1,9.1 -9.9,23.5 -1.9,33.6 l 23,29.1 c -9.2,16.6 -16.2,34.3 -20.8,52.7 l -36.8,4.2 c -12.8,1.5 -22.4,12.3 -22.4,25.1 v 59.7 c 0,12.8 9.6,23.6 22.4,25.1 z m 216.3,-161.5 c 54.4,0 98.7,44.3 98.7,98.7 0,54.4 -44.3,98.7 -98.7,98.7 -54.399,0 -98.7,-44.3 -98.7,-98.7 0,-54.4 44.3,-98.7 98.7,-98.7 z"
   inkscape:connector-curvature="0"
   style="fill:#dbdee3" />

	<path
   id="path4835"
   d="m 867.699,356.238 -31.5,-26.6 c -9.699,-8.2 -24,-7.8 -33.199,0.9 l -17.4,16.3 c -14.699,-7.1 -30.299,-12.1 -46.4,-15 l -4.898,-24 c -2.5,-12.4 -14,-21 -26.602,-20 l -41.1,3.5 c -12.6,1.1 -22.5,11.4 -22.9,24.1 l -0.799,24.4 c -15.801,5.7 -30.701,13.5 -44.301,23.3 l -20.799,-13.8 c -10.602,-7 -24.701,-5 -32.9,4.7 l -26.6,31.7 c -8.201,9.7 -7.801,24 0.898,33.2 l 18.201,19.399 c -6.301,14.2 -10.801,29.101 -13.4,44.4 l -26,5.3 c -12.4,2.5 -21,14 -20,26.601 l 3.5,41.1 c 1.1,12.6 11.4,22.5 24.1,22.9 l 28.1,0.899 c 5.102,13.4 11.801,26.101 19.9,38 l -15.699,23.7 c -7,10.6 -5,24.7 4.699,32.9 l 31.5,26.6 c 9.701,8.2 24,7.8 33.201,-0.9 l 20.6,-19.3 c 13.5,6.3 27.699,11 42.299,13.8 l 5.701,28.2 c 2.5,12.4 14,21 26.6,20 l 41.1,-3.5 c 12.6,-1.1 22.5,-11.399 22.9,-24.1 l 0.9,-27.601 c 15,-5.3 29.199,-12.5 42.299,-21.399 l 22.701,15 c 10.6,7 24.699,5 32.9,-4.7 l 26.6,-31.5 c 8.199,-9.7 7.799,-24 -0.9,-33.2 L 872.7,592.138 c 6.701,-14.2 11.602,-29.2 14.4,-44.601 l 25,-5.1 c 12.4,-2.5 21,-14 20,-26.601 l -3.5,-41.1 c -1.1,-12.6 -11.4,-22.5 -24.1,-22.9 l -25.1,-0.8 c -5.201,-14.6 -12.201,-28.399 -20.9,-41.2 l 13.699,-20.6 c 7.201,-10.598 5.201,-24.798 -4.5,-32.998 z M 712.801,593.837 c -44.4,3.801 -83.602,-29.3 -87.301,-73.699 -3.801,-44.4 29.301,-83.601 73.699,-87.301 44.4,-3.8 83.602,29.301 87.301,73.7 3.801,44.401 -29.301,83.601 -73.699,87.3 z"
   inkscape:connector-curvature="0"
   style="fill:#dbdee3" />

	<path
   id="path4837"
   d="m 205,704.438 c -12.6,1.3 -22.3,11.899 -22.4,24.6 l -0.3,25.3 c -0.2,12.7 9.2,23.5 21.8,25.101 l 18.6,2.399 c 3.1,11.301 7.5,22.101 13.2,32.301 l -12,14.8 c -8,9.899 -7.4,24.1 1.5,33.2 l 17.7,18.1 c 8.9,9.1 23.1,10.1 33.2,2.3 l 14.899,-11.5 c 10.5,6.2 21.601,11.101 33.2,14.5 l 2,19.2 c 1.3,12.6 11.9,22.3 24.6,22.4 l 25.301,0.3 c 12.699,0.2 23.5,-9.2 25.1,-21.8 l 2.3,-18.2 c 12.601,-3.101 24.601,-7.8 36,-14 l 14,11.3 c 9.9,8 24.101,7.4 33.201,-1.5 l 18.1,-17.7 c 9.1,-8.899 10.1,-23.1 2.301,-33.2 L 496.6,818.438 c 6.6,-11 11.701,-22.7 15.201,-35 l 16.6,-1.7 c 12.6,-1.3 22.299,-11.9 22.4,-24.6 l 0.299,-25.301 c 0.201,-12.699 -9.199,-23.5 -21.799,-25.1 l -16.201,-2.1 c -3.1,-12.2 -7.699,-24 -13.699,-35 l 10.1,-12.4 c 8,-9.9 7.4,-24.1 -1.5,-33.2 l -17.699,-18.1 c -8.9,-9.101 -23.102,-10.101 -33.201,-2.3 l -12.101,9.3 c -11.399,-6.9 -23.6,-12.2 -36.399,-15.8 L 407,581.437 c -1.3,-12.601 -11.899,-22.3 -24.6,-22.4 l -25.3,-0.3 c -12.7,-0.2 -23.5,9.2 -25.101,21.8 l -2,15.601 c -13.199,3.399 -25.899,8.6 -37.699,15.399 l -12.5,-10.2 c -9.9,-8 -24.101,-7.399 -33.201,1.5 l -18.2,17.801 c -9.1,8.899 -10.1,23.1 -2.3,33.199 l 10.7,13.801 c -6.2,11 -11.1,22.699 -14.3,35 z m 163.3,-28.601 c 36.3,0.4 65.399,30.301 65,66.601 -0.4,36.3 -30.301,65.399 -66.601,65 -36.3,-0.4 -65.399,-30.3 -65,-66.601 0.401,-36.299 30.301,-65.399 66.601,-65 z"
   inkscape:connector-curvature="0"
   style="fill:#dbdee3" />

</g>
        <g
           id="g4841"
           style="fill:#dbdee3">
</g>
        <g
           id="g4843"
           style="fill:#dbdee3">
</g>
        <g
           id="g4845"
           style="fill:#dbdee3">
</g>
        <g
           id="g4847"
           style="fill:#dbdee3">
</g>
        <g
           id="g4849"
           style="fill:#dbdee3">
</g>
        <g
           id="g4851"
           style="fill:#dbdee3">
</g>
        <g
           id="g4853"
           style="fill:#dbdee3">
</g>
        <g
           id="g4855"
           style="fill:#dbdee3">
</g>
        <g
           id="g4857"
           style="fill:#dbdee3">
</g>
        <g
           id="g4859"
           style="fill:#dbdee3">
</g>
        <g
           id="g4861"
           style="fill:#dbdee3">
</g>
        <g
           id="g4863"
           style="fill:#dbdee3">
</g>
        <g
           id="g4865"
           style="fill:#dbdee3">
</g>
        <g
           id="g4867"
           style="fill:#dbdee3">
</g>
        <g
           id="g4869"
           style="fill:#dbdee3">
</g>
      </g>
    </g>
  </g>
</svg>
