<?xml version="1.0" encoding="UTF-8" standalone="no"?>
<svg
   xmlns:dc="http://purl.org/dc/elements/1.1/"
   xmlns:cc="http://creativecommons.org/ns#"
   xmlns:rdf="http://www.w3.org/1999/02/22-rdf-syntax-ns#"
   xmlns:svg="http://www.w3.org/2000/svg"
   xmlns="http://www.w3.org/2000/svg"
   xmlns:sodipodi="http://sodipodi.sourceforge.net/DTD/sodipodi-0.dtd"
   xmlns:inkscape="http://www.inkscape.org/namespaces/inkscape"
   sodipodi:docname="content-library.svg"
   inkscape:version="1.0 (4035a4fb49, 2020-05-01)"
   id="svg8"
   version="1.1"
   viewBox="0 0 210 297"
   height="297mm"
   width="210mm">
  <defs
     id="defs2" />
  <sodipodi:namedview
     inkscape:window-maximized="1"
     inkscape:window-y="-8"
     inkscape:window-x="-8"
     inkscape:window-height="1137"
     inkscape:window-width="1920"
     showgrid="false"
     inkscape:document-rotation="0"
     inkscape:current-layer="layer1"
     inkscape:document-units="mm"
     inkscape:cy="483.73131"
     inkscape:cx="105.414"
     inkscape:zoom="0.98994949"
     inkscape:pageshadow="2"
     inkscape:pageopacity="0.0"
     borderopacity="1.0"
     bordercolor="#666666"
     pagecolor="#ffffff"
     id="base" />
  <metadata
     id="metadata5">
    <rdf:RDF>
      <cc:Work
         rdf:about="">
        <dc:format>image/svg+xml</dc:format>
        <dc:type
           rdf:resource="http://purl.org/dc/dcmitype/StillImage" />
        <dc:title></dc:title>
      </cc:Work>
    </rdf:RDF>
  </metadata>
  <g
     id="layer1"
     inkscape:groupmode="layer"
     inkscape:label="Layer 1">
    <g
       id="g22417"
       transform="translate(-929.55879,-241.9845)">
      <g
         transform="matrix(0.03818537,0,0,-0.03818537,-575.5319,457.85542)"
         id="g18">
        <path
           id="path20"
           style="fill:#d3b875;fill-opacity:1;fill-rule:nonzero;stroke:none"
           d="M 5164.85,13187.6 H 1487.9 V 16300 h 3676.95 v -3112.4" />
      </g>
      <g
         transform="matrix(0.03818537,0,0,-0.03818537,-575.5319,457.85542)"
         id="g22">
        <path
           id="path24"
           style="fill:#b78c58;fill-opacity:1;fill-rule:nonzero;stroke:none"
           d="M 6599.02,13187.6 H 5164.85 V 16300 h 1434.17 v -3112.4" />
      </g>
      <g
         transform="matrix(0.0398773,0,0,-0.0398773,-575.5319,457.85542)"
         id="g26">
        <path
           id="path28"
           style="fill:#d3b875;fill-opacity:1;fill-rule:nonzero;stroke:none"
           d="m 4945.75,15608.5 529.29,686 1412.39,5.5 -568.36,-691.5 H 4945.75" />
      </g>
      <g
         transform="matrix(0.0398773,0,0,-0.0398773,-575.5319,457.85542)"
         id="g30">
        <path
           id="path32"
           style="fill:#f2d08b;fill-opacity:1;fill-rule:nonzero;stroke:none"
           d="m 2873.32,15608.5 -604.66,686 -1412.383,5.5 568.363,-691.5 h 1448.68" />
      </g>
      <g
         transform="matrix(0.03757719,0,0,-0.03757719,-575.5319,457.85542)"
         id="g34">
        <path
           id="path36"
           style="fill:#4c402c;fill-opacity:1;fill-rule:nonzero;stroke:none"
           d="m 2139.38,16051.6 v 248.4 h -325.11 v -248.4 c 0,-81.7 60.26,-149.3 138.75,-160.8 v -223.6 c -42.81,-5.6 -80.9,-26.3 -108.83,-56.4 h 265.27 c -27.94,30.1 -66.02,50.8 -108.83,56.4 v 223.6 c 78.48,11.5 138.75,79.1 138.75,160.8" />
      </g>
      <g
         transform="matrix(0.03760682,0,0,-0.03760682,-575.5319,457.85542)"
         id="g38">
        <path
           id="path40"
           style="fill:#4c402c;fill-opacity:1;fill-rule:nonzero;stroke:none"
           d="m 2597.86,16239.5 v 60.5 h -15.94 v -60.5 c -137.97,-3.6 -254.62,-99.9 -298.53,-233.4 h 0.72 c 8.29,17.4 26.06,29.4 46.64,29.4 20.58,0 38.34,-12 46.64,-29.4 h 9.98 c 8.3,17.4 26.05,29.4 46.64,29.4 20.58,0 38.34,-12 46.63,-29.4 h 9.99 c 8.3,17.4 26.06,29.4 46.64,29.4 19.08,0 35.71,-10.3 44.65,-25.7 v -280.5 l -7.53,-0.1 c 0,0 -8.7,-97.2 26.06,-121.7 23.14,-16.3 65.65,-9.9 79.82,14.2 15.81,26.9 16.34,52.4 2.64,49.3 -13.7,-3.2 -6.29,-36.3 -26.34,-45.4 -24.5,-11 -45.83,-2.6 -49,26.9 -3.16,29.5 -0.8,77.5 -0.8,77.5 l -8.91,-0.3 v 283.2 c 9.29,13.7 24.93,22.6 42.67,22.6 20.58,0 38.34,-12 46.64,-29.4 h 7.88 c 8.29,17.4 26.06,29.4 46.64,29.4 20.57,0 38.34,-12 46.63,-29.4 h 9.99 c 8.29,17.4 26.05,29.4 46.63,29.4 20.58,0 38.35,-12 46.64,-29.4 h 4.8 c -43.9,133.5 -160.56,229.8 -298.52,233.4" />
      </g>
      <g
         transform="matrix(0.03760188,0,0,-0.03760188,-575.5319,457.85542)"
         id="g42">
        <path
           id="path44"
           style="fill:#4c402c;fill-opacity:1;fill-rule:nonzero;stroke:none"
           d="m 3253.9,16143.6 -130.26,156.4 -130.26,-156.4 h 82.09 v -457.2 h 96.36 v 457.2 h 82.07" />
      </g>
      <g
         transform="matrix(0.03760188,0,0,-0.03760188,-575.5319,457.85542)"
         id="g46">
        <path
           id="path48"
           style="fill:#4c402c;fill-opacity:1;fill-rule:nonzero;stroke:none"
           d="m 3540.44,16143.6 -130.25,156.4 -130.26,-156.4 h 82.08 v -457.2 h 96.36 v 457.2 h 82.07" />
      </g>
      <g
         transform="matrix(0.03608106,0,0,-0.03608106,-575.5319,457.85542)"
         id="g50">
        <path
           id="path52"
           style="fill:#4c402c;fill-opacity:1;fill-rule:nonzero;stroke:none"
           d="m 3674.17,16260.4 h -539.1 v 39.6 h 539.1 v -39.6" />
      </g>
    </g>
    <g
       id="g22559"
       transform="translate(-852.45165,-297.92498)">
      <g
         transform="matrix(0.03752744,0,0,-0.03752744,-575.5319,457.85542)"
         id="g54">
        <path
           id="path56"
           style="fill:#d3b875;fill-opacity:1;fill-rule:nonzero;stroke:none"
           d="M 12103.3,12336.5 8361.89,13511.9 V 16300 l 3741.41,-796.5 v -3167" />
      </g>
      <g
         transform="matrix(0.03819455,0,0,-0.03819455,-575.5319,457.85542)"
         id="g58">
        <path
           id="path60"
           style="fill:#b78c58;fill-opacity:1;fill-rule:nonzero;stroke:none"
           d="M 14109.8,13381.8 11891.9,12121 v 3111.7 l 2217.9,1067.3 v -2918.2" />
      </g>
      <g
         transform="matrix(0.03936189,0,0,-0.03936189,-575.5319,457.85542)"
         id="g62">
        <path
           id="path64"
           style="fill:#f2d08b;fill-opacity:1;fill-rule:nonzero;stroke:none"
           d="m 7972.15,15540.3 2177.15,759.7 3542,-483.4 -2152.1,-1035.7 -3567.05,759.4" />
      </g>
      <g
         transform="matrix(0.0371087,0,0,-0.0371087,-575.5319,457.85542)"
         id="g66">
        <path
           id="path68"
           style="fill:#987848;fill-opacity:1;fill-rule:nonzero;stroke:none"
           d="m 13319.2,14626.4 -125.6,183.1 -73.2,1276.8 -22.7,5 433.8,208.7 v 0 l 80.8,-1438.1 -62.9,94.2 -83.7,-167.5 -84.3,73.3 -62.2,-235.5" />
      </g>
      <g
         transform="matrix(0.03786329,0,0,-0.03786329,-575.5319,457.85542)"
         id="g70">
        <path
           id="path72"
           style="fill:#b0935c;fill-opacity:1;fill-rule:nonzero;stroke:none"
           d="m 12836.6,15770.6 -1682.6,368.4 350,161 1757.8,-324.9 -425.2,-204.5" />
      </g>
      <g
         transform="matrix(0.03850922,0,0,-0.03850922,-575.5319,457.85542)"
         id="g74">
        <path
           id="path76"
           style="fill:#b5a68b;fill-opacity:1;fill-rule:nonzero;stroke:none"
           d="m 9206.98,16253.8 v 0 l 132.46,46.2 -132.46,-46.2" />
      </g>
      <g
         transform="matrix(0.03864963,0,0,-0.03864963,-575.5319,457.85542)"
         id="g78">
        <path
           id="path80"
           style="fill:#b0935c;fill-opacity:1;fill-rule:nonzero;stroke:none"
           d="m 10535,15896.5 -1361.51,298.2 131.98,46 169.96,59.3 1402.97,-259.3 -343.4,-144.2" />
      </g>
      <g
         transform="matrix(0.0376929,0,0,-0.0376929,-575.5319,457.85542)"
         id="g82">
        <path
           id="path84"
           style="fill:#b0935c;fill-opacity:1;fill-rule:nonzero;stroke:none"
           d="m 10317.9,15804.2 -462.33,98.4 946.83,397.4 402,-88.1 -886.5,-407.7" />
      </g>
      <g
         transform="matrix(0.03879004,0,0,-0.03879004,-575.5319,457.85542)"
         id="g86">
        <path
           id="path88"
           style="fill:#b5a68b;fill-opacity:1;fill-rule:nonzero;stroke:none"
           d="m 12072.2,16298.3 -12.5,1.7 12.5,-1.7" />
      </g>
      <g
         transform="matrix(0.03890398,0,0,-0.03890398,-575.5319,457.85542)"
         id="g90">
        <path
           id="path92"
           style="fill:#b0935c;fill-opacity:1;fill-rule:nonzero;stroke:none"
           d="m 11196.3,15864 -389,71.8 867.7,364.2 349.4,-47.7 12.5,-1.7 -840.6,-386.6" />
      </g>
      <g
         transform="matrix(0.03803474,0,0,-0.03803474,-575.5319,457.85542)"
         id="g94">
        <path
           id="path96"
           style="fill:#967b49;fill-opacity:1;fill-rule:nonzero;stroke:none"
           d="m 11103.7,16066.2 -398.4,87.3 349,146.5 397.8,-73.5 -348.4,-160.3" />
      </g>
      <g
         transform="matrix(0.03677391,0,0,-0.03677391,-575.5319,457.85542)"
         id="g98">
        <path
           id="path100"
           style="fill:#846b3d;fill-opacity:1;fill-rule:nonzero;stroke:none"
           d="m 10101.8,16300 v -3004.1 l 473.9,-148.9 v 3052.1 l -473.9,100.9" />
      </g>
      <path
         id="path102"
         style="fill:#ffffff;fill-opacity:1;fill-rule:nonzero;stroke:none;stroke-width:0.0352778"
         d="m -90.208425,-35.197417 c 0,1.284112 -0.959556,1.725084 -2.328333,2.328334 l -14.368642,7.256639 c -1.9438,0.963084 -2.33186,-1.044222 -2.33186,-2.331861 v -22.136807 c 0,-1.287639 0.83961,-1.591028 2.33186,-2.328333 l 14.368642,-7.25664 c 3.040944,-1.552222 2.130777,1.605139 2.328333,7.57414 v 16.894528" />
      <path
         id="path104"
         style="fill:#4c402c;fill-opacity:1;fill-rule:nonzero;stroke:none;stroke-width:0.0352778"
         d="m -107.76265,-47.900945 14.25928,-6.928556 v 0.79375 l -14.25928,7.171973 v -1.037167" />
      <path
         id="path106"
         style="fill:#4c402c;fill-opacity:1;fill-rule:nonzero;stroke:none;stroke-width:0.0352778"
         d="m -107.76265,-45.170445 14.25928,-6.932084 v 0.797278 l -14.25928,7.168445 v -1.033639" />
      <path
         id="path108"
         style="fill:#4c402c;fill-opacity:1;fill-rule:nonzero;stroke:none;stroke-width:0.0352778"
         d="m -107.76265,-42.108334 14.25928,-6.932083 v 0.797277 l -14.25928,7.168445 v -1.033639" />
      <path
         id="path110"
         style="fill:#4c402c;fill-opacity:1;fill-rule:nonzero;stroke:none;stroke-width:0.0352778"
         d="m -107.42751,-33.708694 9.017001,-4.381501 0.109361,0.829028 -9.126362,4.589639 v -1.037166" />
      <path
         id="path112"
         style="fill:#4c402c;fill-opacity:1;fill-rule:nonzero;stroke:none;stroke-width:0.0352778"
         d="m -107.42751,-31.634361 9.017001,-4.3815 0.109361,0.8255 -9.126362,4.589639 v -1.033639" />
      <path
         id="path114"
         style="fill:#4c402c;fill-opacity:1;fill-rule:nonzero;stroke:none;stroke-width:0.0352778"
         d="m -107.42751,-29.521222 9.017001,-4.385028 0.109361,0.829028 -9.126362,4.589639 v -1.033639" />
    </g>
    <g
       id="g22705"
       transform="translate(-722.42784,-222.32974)">
      <g
         transform="matrix(0.04391061,0,0,-0.04391061,-575.5319,457.85542)"
         id="g116">
        <path
           id="path118"
           style="fill:#d3b875;fill-opacity:1;fill-rule:nonzero;stroke:none"
           d="m 16300,10588 -2204.1,1004.6 v 2382.7 L 16300,13294.6 V 10588" />
      </g>
      <g
         transform="matrix(0.04839124,0,0,-0.04839124,-575.5319,457.85542)"
         id="g120">
        <path
           id="path122"
           style="fill:#b78c58;fill-opacity:1;fill-rule:nonzero;stroke:none"
           d="M 16300,10680 14790.8,9607.64 v 2456.06 l 1509.2,919.6 V 10680" />
      </g>
      <g
         transform="matrix(0.04839124,0,0,-0.04839124,-575.5319,457.85542)"
         id="g124">
        <path
           id="path126"
           style="fill:#f2d08b;fill-opacity:1;fill-rule:nonzero;stroke:none"
           d="m 12790.8,12681.4 2000,-617.7 1509.2,919.6 -1982.1,420.2 -1527.1,-722.1" />
      </g>
      <g
         transform="matrix(0.04493648,0,0,-0.04493648,-575.5319,457.85542)"
         id="g128">
        <path
           id="path130"
           style="fill:#b78c58;fill-opacity:1;fill-rule:nonzero;stroke:none"
           d="m 14788.4,13343.1 1461.7,914.6 49.9,-10.5 -1449,-923.4 -62.6,19.3" />
      </g>
      <g
         transform="matrix(0.04391061,0,0,-0.04391061,-575.5319,457.85542)"
         id="g132">
        <path
           id="path134"
           style="fill:#f2d08b;fill-opacity:1;fill-rule:nonzero;stroke:none"
           d="m 14095.9,13975.3 -646.9,-827 2225.4,-866.6 625.6,1012.9 -2204.1,680.7" />
      </g>
      <g
         transform="matrix(0.05042782,0,0,-0.05042782,-575.5319,457.85542)"
         id="g136">
        <path
           id="path138"
           style="fill:#d3b875;fill-opacity:1;fill-rule:nonzero;stroke:none"
           d="m 13739.6,12862.1 517.7,685.6 2042.7,-237.9 -658.4,-850.9 -1902,403.2" />
      </g>
      <g
         transform="matrix(0.04402032,0,0,-0.04402032,-575.5319,457.85542)"
         id="g140">
        <path
           id="path142"
           style="fill:#b78c58;fill-opacity:1;fill-rule:nonzero;stroke:none"
           d="m 16300,13286.2 -2201.9,672 -37.3,-17.6 2198.7,-679.1 40.5,24.7" />
      </g>
      <g
         transform="matrix(0.04839124,0,0,-0.04839124,-575.5319,457.85542)"
         id="g144">
        <path
           id="path146"
           style="fill:#b78c58;fill-opacity:1;fill-rule:nonzero;stroke:none"
           d="m 14317.9,13403.5 1982.1,-420.2 -31,-18.9 -1968.8,430.7 17.7,8.4" />
      </g>
      <g
         transform="matrix(0.04280253,0,0,-0.04280253,-575.5319,457.85542)"
         id="g148">
        <path
           id="path150"
           style="fill:#ffffff;fill-opacity:1;fill-rule:nonzero;stroke:none"
           d="m 15871.4,12068.3 v -533 l 428.6,-186.8 v 615.4 l -428.6,104.4" />
      </g>
      <g
         transform="matrix(0.04270552,0,0,-0.04270552,-575.5319,457.85542)"
         id="g152">
        <path
           id="path154"
           style="fill:#4c402c;fill-opacity:1;fill-rule:nonzero;stroke:none"
           d="m 15929.6,12064.4 370.4,-94.6 v -19.7 l -370.4,95.9 v 18.4" />
      </g>
      <g
         transform="matrix(0.04270552,0,0,-0.04270552,-575.5319,457.85542)"
         id="g156">
        <path
           id="path158"
           style="fill:#4c402c;fill-opacity:1;fill-rule:nonzero;stroke:none"
           d="m 15929.6,12021.1 370.4,-94.6 v -19.7 l -370.4,95.9 v 18.4" />
      </g>
      <g
         transform="matrix(0.04270552,0,0,-0.04270552,-575.5319,457.85542)"
         id="g160">
        <path
           id="path162"
           style="fill:#4c402c;fill-opacity:1;fill-rule:nonzero;stroke:none"
           d="m 15929.6,11970.7 370.4,-94.6 v -19.7 l -370.4,95.9 v 18.4" />
      </g>
      <g
         transform="matrix(0.04270552,0,0,-0.04270552,-575.5319,457.85542)"
         id="g164">
        <path
           id="path166"
           style="fill:#4c402c;fill-opacity:1;fill-rule:nonzero;stroke:none"
           d="m 15929.6,11922.1 370.4,-94.6 v -19.7 l -370.4,95.9 v 18.4" />
      </g>
      <g
         transform="matrix(0.04220422,0,0,-0.04220422,-575.5319,457.85542)"
         id="g168">
        <path
           id="path170"
           style="fill:#4c402c;fill-opacity:1;fill-rule:nonzero;stroke:none"
           d="m 16118.7,11834.4 181.3,-56.1 -0.5,-22.6 -180.8,60.1 v 18.6" />
      </g>
      <g
         transform="matrix(0.04220422,0,0,-0.04220422,-575.5319,457.85542)"
         id="g172">
        <path
           id="path174"
           style="fill:#4c402c;fill-opacity:1;fill-rule:nonzero;stroke:none"
           d="m 16118.7,11801.9 181.3,-56.1 -0.5,-22.6 -180.8,60.1 v 18.6" />
      </g>
      <g
         transform="matrix(0.04220422,0,0,-0.04220422,-575.5319,457.85542)"
         id="g176">
        <path
           id="path178"
           style="fill:#4c402c;fill-opacity:1;fill-rule:nonzero;stroke:none"
           d="m 16118.7,11762.6 181.3,-56.2 -0.5,-22.5 -180.8,60.1 v 18.6" />
      </g>
    </g>
    <g
       id="g22483"
       transform="translate(-1041.4398,211.58692)">
      <path
         id="path180"
         style="fill:#d3b875;fill-opacity:1;fill-rule:nonzero;stroke:none;stroke-width:0.0352778"
         d="m -279.79051,294.47344 h 107.38839 v -57.81676 h -107.38839 z" />
      <path
         id="path182"
         style="fill:#b78c58;fill-opacity:1;fill-rule:nonzero;stroke:none;stroke-width:0.0352778"
         d="m -172.40212,294.47344 h 32.41325 v -57.81676 h -32.41325 z" />
      <path
         id="path184"
         style="fill:#b78c58;fill-opacity:1;fill-rule:nonzero;stroke:none;stroke-width:0.0352778"
         d="m -279.79051,236.65668 h 107.38839 v 6.62517 l -107.38839,-3.31258 v -3.31259" />
      <path
         id="path186"
         style="fill:#d3b875;fill-opacity:1;fill-rule:nonzero;stroke:none;stroke-width:0.0352778"
         d="m -282.73056,237.09413 h 114.64996 v -9.49318 h -114.64996 z" />
      <path
         id="path188"
         style="fill:#b78c58;fill-opacity:1;fill-rule:nonzero;stroke:none;stroke-width:0.0352778"
         d="m -169.52699,237.09413 h 32.80474 v -9.49318 h -32.80474 z" />
      <path
         id="path190"
         style="fill:#664c33;fill-opacity:1;fill-rule:nonzero;stroke:none;stroke-width:0.0352778"
         d="m -143.83065,250.68313 c 0,1.44286 -1.17122,2.61408 -2.61408,2.61408 h -13.93473 c -1.44286,0 -2.61408,-1.17122 -2.61408,-2.61408 v -0.87136 c 0,-1.44286 1.17122,-2.61056 2.61408,-2.61056 h 13.93473 c 1.44286,0 2.61408,1.1677 2.61408,2.61056 v 0.87136" />
      <path
         id="path192"
         style="fill:#977249;fill-opacity:1;fill-rule:nonzero;stroke:none;stroke-width:0.0352778"
         d="m -139.9889,243.28185 h -32.41322 v -6.18772 h 31.86994 l 0.54328,6.18772" />
      <path
         id="path194"
         style="fill:#a78d5b;fill-opacity:1;fill-rule:nonzero;stroke:none;stroke-width:0.0352778"
         d="m -169.52699,237.09413 h -2.87513 l 2.87513,-0.0318 v 0.0318" />
      <path
         id="path196"
         style="fill:#977249;fill-opacity:1;fill-rule:nonzero;stroke:none;stroke-width:0.0352778"
         d="m -140.53218,237.09413 h -28.99481 v -0.0318 l 28.96306,-0.31397 0.0317,0.34572" />
      <path
         id="path198"
         style="fill:#d3b875;fill-opacity:1;fill-rule:nonzero;stroke:none;stroke-width:0.0352778"
         d="m -225.59502,227.60088 h 65.69181 v -32.38515 h -65.69181 z" />
      <path
         id="path200"
         style="fill:#b78c58;fill-opacity:1;fill-rule:nonzero;stroke:none;stroke-width:0.0352778"
         d="m -159.90321,227.60088 h 19.82612 v -32.38515 h -19.82612 z" />
      <path
         id="path202"
         style="fill:#b78c58;fill-opacity:1;fill-rule:nonzero;stroke:none;stroke-width:0.0352778"
         d="m -225.59502,195.21588 h 65.69181 v 3.71122 l -65.69181,-1.85561 v -1.85561" />
      <path
         id="path204"
         style="fill:#d3b875;fill-opacity:1;fill-rule:nonzero;stroke:none;stroke-width:0.0352778"
         d="m -227.39348,195.46282 h 70.13258 v -8.58298 h -70.13258 z" />
      <path
         id="path206"
         style="fill:#b78c58;fill-opacity:1;fill-rule:nonzero;stroke:none;stroke-width:0.0352778"
         d="m -157.2609,195.46282 h 19.01472 v -8.58298 h -19.01472 z" />
      <path
         id="path208"
         style="fill:#664c33;fill-opacity:1;fill-rule:nonzero;stroke:none;stroke-width:0.0352778"
         d="m -142.22904,204.05649 c 0,1.2065 -0.82903,2.18722 -1.85208,2.18722 h -9.87778 c -1.02306,0 -1.85208,-0.98072 -1.85208,-2.18722 v -0.73025 c 0,-1.2065 0.82902,-2.18723 1.85208,-2.18723 h 9.87778 c 1.02305,0 1.85208,0.98073 1.85208,2.18723 v 0.73025" />
      <path
         id="path210"
         style="fill:#977249;fill-opacity:1;fill-rule:nonzero;stroke:none;stroke-width:0.0352778"
         d="m -140.07709,198.9271 h -19.82612 v -3.46428 h 2.64231 v -0.0282 0.0282 h 16.85219 l 0.33162,3.46428" />
      <path
         id="path212"
         style="fill:#a78d5b;fill-opacity:1;fill-rule:nonzero;stroke:none;stroke-width:0.0352778"
         d="m -157.2609,195.46282 h -2.64231 l 2.64231,-0.0282 v 0.0282" />
      <path
         id="path214"
         style="fill:#977249;fill-opacity:1;fill-rule:nonzero;stroke:none;stroke-width:0.0352778"
         d="m -140.40871,195.46282 h -16.85219 v -0.0282 l 16.83103,-0.16581 0.0212,0.19403" />
      <path
         id="path216"
         style="fill:#f2d08b;fill-opacity:1;fill-rule:nonzero;stroke:none;stroke-width:0.0352778"
         d="m -170.32426,229.48824 c 0,0.44097 -0.35984,0.79728 -0.80081,0.79728 h -109.90016 c -0.44097,0 -0.79834,-0.35631 -0.79834,-0.79728 0,-0.44097 0.35737,-0.79728 0.79834,-0.79728 h 109.90016 c 0.44097,0 0.80081,0.35631 0.80081,0.79728" />
      <path
         id="path218"
         style="fill:#f2d08b;fill-opacity:1;fill-rule:nonzero;stroke:none;stroke-width:0.0352778"
         d="m -157.9841,188.18501 c 0,0.32103 -0.26105,0.57856 -0.58208,0.57856 h -66.94876 c -0.32067,0 -0.58067,-0.25753 -0.58067,-0.57856 0,-0.32102 0.26,-0.58208 0.58067,-0.58208 h 66.94876 c 0.32103,0 0.58208,0.26106 0.58208,0.58208" />
    </g>
    <g
       id="g22607"
       transform="translate(-702.77308,83.07502)">
      <g
         transform="matrix(0.05293255,0,0,-0.05293255,-575.5319,457.85542)"
         id="g220">
        <path
           id="path222"
           style="fill:#d3b875;fill-opacity:1;fill-rule:nonzero;stroke:none"
           d="M 16300,966.84 H 14169.2 V 3343.72 H 16300 V 966.84" />
      </g>
      <g
         transform="matrix(0.05563165,0,0,-0.05563165,-575.5319,457.85542)"
         id="g224">
        <path
           id="path226"
           style="fill:#b78c58;fill-opacity:1;fill-rule:nonzero;stroke:none"
           d="m 16300,919.936 h -790.8 V 3181.51 H 16300 V 919.936" />
      </g>
      <g
         transform="matrix(0.05674854,0,0,-0.05674854,-575.5319,457.85542)"
         id="g228">
        <path
           id="path230"
           style="fill:#d3b875;fill-opacity:1;fill-rule:nonzero;stroke:none"
           d="m 16300,2728.55 -298.8,387.23 -797.2,3.11 320.8,-390.34 h 775.2" />
      </g>
      <g
         transform="matrix(0.05682545,0,0,-0.05682545,-575.5319,457.85542)"
         id="g232">
        <path
           id="path234"
           style="fill:#f2d08b;fill-opacity:1;fill-rule:nonzero;stroke:none"
           d="m 13986.5,3111.57 356.5,389.8 h 1957 l -320.4,-389.8 h -1993.1" />
      </g>
      <g
         transform="matrix(0.04984962,0,0,-0.04984962,-575.5319,457.85542)"
         id="g236">
        <path
           id="path238"
           style="fill:#4c402c;fill-opacity:1;fill-rule:nonzero;stroke:none"
           d="m 16300,1493.71 v 150.39 h -196.9 v -150.39 c 0,-49.46 36.5,-90.44 84,-97.37 v -135.45 c -25.9,-3.4 -48.9,-15.86 -65.9,-34.12 h 160.7 c -16.9,18.26 -40,30.72 -65.9,34.12 v 135.45 c 47.6,6.93 84,47.91 84,97.37" />
      </g>
      <g
         transform="matrix(0.05125544,0,0,-0.05125544,-575.5319,457.85542)"
         id="g240">
        <path
           id="path242"
           style="fill:#4c402c;fill-opacity:1;fill-rule:nonzero;stroke:none"
           d="m 16124.1,1570.91 v 35.66 h -9.4 v -35.66 c -81.3,-2.13 -150.1,-58.91 -176,-137.58 h 0.4 c 4.9,10.25 15.4,17.34 27.5,17.34 12.2,0 22.6,-7.09 27.5,-17.34 h 5.9 c 4.9,10.25 15.3,17.34 27.5,17.34 12.1,0 22.6,-7.09 27.5,-17.34 h 5.8 c 4.9,10.25 15.4,17.34 27.6,17.34 11.2,0 21,-6.05 26.3,-15.14 v -165.25 l -4.5,-0.14 c 0,0 -5.1,-57.27 15.4,-71.72 13.6,-9.64 38.7,-5.85 47,8.4 9.4,15.83 9.6,30.9 1.6,28.97 -8.1,-1.86 -3.7,-21.33 -15.6,-26.7 -14.4,-6.47 -26.9,-1.52 -28.8,15.9 -1.9,17.34 -0.5,45.63 -0.5,45.63 l -5.2,-0.14 v 166.91 c 5.4,8.05 14.6,13.28 25.1,13.28 12.1,0 22.6,-7.09 27.5,-17.34 h 4.6 c 4.9,10.25 15.4,17.34 27.5,17.34 12.2,0 22.6,-7.09 27.5,-17.34 h 5.9 c 4.9,10.25 15.3,17.34 27.5,17.34 12.1,0 22.6,-7.09 27.5,-17.34 h 2.8 c -25.9,78.67 -94.6,135.45 -175.9,137.58" />
      </g>
      <g
         transform="matrix(0.05191725,0,0,-0.05191725,-575.5319,457.85542)"
         id="g244">
        <path
           id="path246"
           style="fill:#4c402c;fill-opacity:1;fill-rule:nonzero;stroke:none"
           d="m 16300,1493.88 -75.8,90.98 -75.8,-90.98 h 47.8 v -266.03 h 56 v 266.03 h 47.8" />
      </g>
      <g
         transform="matrix(0.05244818,0,0,-0.05244818,-575.5319,457.85542)"
         id="g248">
        <path
           id="path250"
           style="fill:#4c402c;fill-opacity:1;fill-rule:nonzero;stroke:none"
           d="m 16300,1478.75 -75,90.07 -75,-90.07 h 47.2 v -263.33 h 55.6 v 263.33 h 47.2" />
      </g>
      <g
         transform="matrix(0.05242066,0,0,-0.05242066,-575.5319,457.85542)"
         id="g252">
        <path
           id="path254"
           style="fill:#4c402c;fill-opacity:1;fill-rule:nonzero;stroke:none"
           d="m 16300,1167.81 h -298.1 v 21.94 h 298.1 v -21.94" />
      </g>
      <g
         transform="matrix(0.04601316,0,0,-0.04601316,-575.5319,457.85542)"
         id="g256">
        <path
           id="path258"
           style="fill:#b78c58;fill-opacity:1;fill-rule:nonzero;stroke:none"
           d="m 16300,3846.57 -395.8,-481.41 h 395.8 v 481.41" />
      </g>
    </g>
    <g
       id="g22428"
       transform="translate(-967.35641,-134.63927)">
      <path
         id="path260"
         style="fill:#d3b875;fill-opacity:1;fill-rule:nonzero;stroke:none;stroke-width:0.0352778"
         d="M -459.78268,159.01735 -542.94585,121.1149 V 31.213004 l 83.16317,25.682224 V 159.01735" />
      <path
         id="path262"
         style="fill:#b78c58;fill-opacity:1;fill-rule:nonzero;stroke:none;stroke-width:0.0352778"
         d="m -351.10701,114.42976 -108.67567,48.26 -0.2727,-105.794532 108.94837,-38.234058 v 95.76859" />
      <path
         id="path264"
         style="fill:#f2d08b;fill-opacity:1;fill-rule:nonzero;stroke:none;stroke-width:0.0352778"
         d="M -542.94585,31.213004 -460.05538,56.895228 -351.10701,18.66117 -436.22277,-0.55110888 -542.94585,31.213004" />
      <path
         id="path266"
         style="fill:#b79e67;fill-opacity:1;fill-rule:nonzero;stroke:none;stroke-width:0.0352778"
         d="M -351.10701,114.42976 -413.85983,95.115175 V 40.685088 l 62.75282,-22.023918 v 95.76859" />
      <path
         id="path268"
         style="fill:#99744b;fill-opacity:1;fill-rule:nonzero;stroke:none;stroke-width:0.0352778"
         d="m -413.85983,95.115175 -48.58879,19.314585 2.39324,-57.534532 46.19555,-16.21014 v 54.430087" />
      <path
         id="path270"
         style="fill:#f2d08b;fill-opacity:1;fill-rule:nonzero;stroke:none;stroke-width:0.0352778"
         d="m -351.10701,18.66117 38.69761,-7.366 v 93.19684 l -38.69761,9.93775 V 18.66117" />
      <path
         id="path272"
         style="fill:#f2d08b;fill-opacity:1;fill-rule:nonzero;stroke:none;stroke-width:0.0352778"
         d="m -460.05538,56.895228 -52.4062,5.969 V 171.78085 l 52.6789,-9.09109 -0.2727,-105.794532" />
      <path
         id="path274"
         style="fill:#f2d08b;fill-opacity:1;fill-rule:nonzero;stroke:none;stroke-width:0.0352778"
         d="m -459.78268,162.68976 49.62067,25.91506 94.24564,-58.81864 -35.19064,-15.35642 -108.67567,48.26" />
      <path
         id="path276"
         style="fill:#d3b875;fill-opacity:1;fill-rule:nonzero;stroke:none;stroke-width:0.0352778"
         d="m -460.05538,56.895228 28.81701,35.905725 103.3706,-42.869559 -23.23924,-31.270224 -108.94837,38.234058" />
    </g>
    <g
       transform="translate(-766.27308,-107.42498)"
       id="g22779">
      <g
         transform="matrix(0.04466096,0,0,-0.04466096,-575.5319,457.85542)"
         id="g278">
        <path
           id="path280"
           style="fill:#d3b875;fill-opacity:1;fill-rule:nonzero;stroke:none"
           d="m 16300,6403.73 -1722.1,784.92 V 9050.39 L 16300,8518.5 V 6403.73" />
      </g>
      <g
         transform="matrix(0.05174474,0,0,-0.05174474,-575.5319,457.85542)"
         id="g282">
        <path
           id="path284"
           style="fill:#b78c58;fill-opacity:1;fill-rule:nonzero;stroke:none"
           d="M 16300,6608.15 14068.6,5527.08 V 7352.35 L 16300,8087.18 V 6608.15" />
      </g>
      <g
         transform="matrix(0.05046028,0,0,-0.05046028,-575.5319,457.85542)"
         id="g286">
        <path
           id="path288"
           style="fill:#d3b875;fill-opacity:1;fill-rule:nonzero;stroke:none"
           d="m 16300,5239.96 -1130.8,515.39 V 6977.83 L 16300,6628.54 V 5239.96" />
      </g>
      <g
         transform="matrix(0.05571561,0,0,-0.05571561,-575.5319,457.85542)"
         id="g290">
        <path
           id="path292"
           style="fill:#b78c58;fill-opacity:1;fill-rule:nonzero;stroke:none"
           d="M 16300,5490.57 14762.5,4745.71 V 6003.32 L 16300,6604.23 V 5490.57" />
      </g>
      <g
         transform="matrix(0.0552951,0,0,-0.0552951,-575.5319,457.85542)"
         id="g294">
        <path
           id="path296"
           style="fill:#d3b875;fill-opacity:1;fill-rule:nonzero;stroke:none"
           d="m 16300,4603.5 -722.3,329.2 v 780.84 L 16300,5490.43 V 4603.5" />
      </g>
      <g
         transform="matrix(0.0582288,0,0,-0.0582288,-575.5319,457.85542)"
         id="g298">
        <path
           id="path300"
           style="fill:#b78c58;fill-opacity:1;fill-rule:nonzero;stroke:none"
           d="m 16300,4816.18 -821.3,-444.63 v 842.25 l 821.3,329.51 v -727.13" />
      </g>
      <g
         transform="matrix(0.05173028,0,0,-0.05173028,-575.5319,457.85542)"
         id="g302">
        <path
           id="path304"
           style="fill:#99744b;fill-opacity:1;fill-rule:nonzero;stroke:none"
           d="m 12585.7,7813.61 1486.8,-459.2 2227.5,735.04 -1580.5,312.38 -2133.8,-588.22" />
      </g>
      <g
         transform="matrix(0.05317843,0,0,-0.05317843,-575.5319,457.85542)"
         id="g306">
        <path
           id="path308"
           style="fill:#d3b875;fill-opacity:1;fill-rule:nonzero;stroke:none"
           d="m 14318.7,8173.04 494.2,516.64 1487.1,-246.78 -443.9,-573.74 -1537.4,303.88" />
      </g>
      <g
         transform="matrix(0.04378043,0,0,-0.04378043,-575.5319,457.85542)"
         id="g310">
        <path
           id="path312"
           style="fill:#ffffff;fill-opacity:1;fill-rule:nonzero;stroke:none"
           d="m 15967,7469.64 v -414.1 l 333,-145.12 v 478.15 l -333,81.07" />
      </g>
      <g
         transform="matrix(0.04370317,0,0,-0.04370317,-575.5319,457.85542)"
         id="g314">
        <path
           id="path316"
           style="fill:#4c402c;fill-opacity:1;fill-rule:nonzero;stroke:none"
           d="m 16012.4,7458.55 287.6,-73.46 v -15.34 l -287.6,74.51 v 14.29" />
      </g>
      <g
         transform="matrix(0.04370317,0,0,-0.04370317,-575.5319,457.85542)"
         id="g318">
        <path
           id="path320"
           style="fill:#4c402c;fill-opacity:1;fill-rule:nonzero;stroke:none"
           d="m 16012.4,7424.88 287.6,-73.45 v -15.34 l -287.6,74.51 v 14.28" />
      </g>
      <g
         transform="matrix(0.04370317,0,0,-0.04370317,-575.5319,457.85542)"
         id="g322">
        <path
           id="path324"
           style="fill:#4c402c;fill-opacity:1;fill-rule:nonzero;stroke:none"
           d="m 16012.4,7385.73 287.6,-73.45 v -15.26 l -287.6,74.43 v 14.28" />
      </g>
      <g
         transform="matrix(0.04370317,0,0,-0.04370317,-575.5319,457.85542)"
         id="g326">
        <path
           id="path328"
           style="fill:#4c402c;fill-opacity:1;fill-rule:nonzero;stroke:none"
           d="m 16012.4,7348.04 287.6,-73.46 v -15.34 l -287.6,74.51 v 14.29" />
      </g>
      <g
         transform="matrix(0.04330524,0,0,-0.04330524,-575.5319,457.85542)"
         id="g330">
        <path
           id="path332"
           style="fill:#4c402c;fill-opacity:1;fill-rule:nonzero;stroke:none"
           d="m 16159.6,7238.1 140.4,-43.5 -0.4,-17.52 -140,46.6 v 14.42" />
      </g>
      <g
         transform="matrix(0.04330524,0,0,-0.04330524,-575.5319,457.85542)"
         id="g334">
        <path
           id="path336"
           style="fill:#4c402c;fill-opacity:1;fill-rule:nonzero;stroke:none"
           d="m 16159.6,7212.85 140.4,-43.42 -0.4,-17.52 -140,46.52 v 14.42" />
      </g>
      <g
         transform="matrix(0.04330524,0,0,-0.04330524,-575.5319,457.85542)"
         id="g338">
        <path
           id="path340"
           style="fill:#4c402c;fill-opacity:1;fill-rule:nonzero;stroke:none"
           d="m 16159.6,7182.38 140.4,-43.42 -0.4,-17.52 -140,46.52 v 14.42" />
      </g>
      <g
         transform="matrix(0.04671413,0,0,-0.04671413,-575.5319,457.85542)"
         id="g342">
        <path
           id="path344"
           style="fill:#d3b875;fill-opacity:1;fill-rule:nonzero;stroke:none"
           d="m 16300,9303.98 v -920.83 l -716.4,-239.06 -1646.5,508.51 2362.9,651.38" />
      </g>
      <g
         transform="matrix(0.04627563,0,0,-0.04627563,-575.5319,457.85542)"
         id="g346">
        <path
           id="path348"
           style="fill:#f2d08b;fill-opacity:1;fill-rule:nonzero;stroke:none"
           d="m 14764.3,9470.06 -695.1,-735.44 1662.1,-513.33 568.7,821.69 -1535.7,427.08" />
      </g>
      <g
         transform="matrix(0.04149302,0,0,-0.04149302,-575.5319,457.85542)"
         id="g350">
        <path
           id="path352"
           style="fill:#99744b;fill-opacity:1;fill-rule:nonzero;stroke:none"
           d="m 16300,9143.28 c 0,-61.57 -36.3,-111.48 -81,-111.48 -44.8,0 -81.1,49.91 -81.1,111.48 0,61.57 36.3,111.48 81.1,111.48 44.7,0 81,-49.91 81,-111.48" />
      </g>
      <g
         transform="matrix(0.04214672,0,0,-0.04214672,-575.5319,457.85542)"
         id="g354">
        <path
           id="path356"
           style="fill:#99744b;fill-opacity:1;fill-rule:nonzero;stroke:none"
           d="m 16300,8928.31 c 0,-60.6 -35.7,-109.75 -79.9,-109.75 -44,0 -79.7,49.15 -79.7,109.75 0,60.62 35.7,109.76 79.7,109.76 44.2,0 79.9,-49.14 79.9,-109.76" />
      </g>
      <g
         transform="matrix(0.04283463,0,0,-0.04283463,-575.5319,457.85542)"
         id="g358">
        <path
           id="path360"
           style="fill:#99744b;fill-opacity:1;fill-rule:nonzero;stroke:none"
           d="m 16300,8712.92 c 0,-59.65 -35.2,-108 -78.6,-108 -43.4,0 -78.5,48.35 -78.5,108 0,59.64 35.1,107.98 78.5,107.98 43.4,0 78.6,-48.34 78.6,-107.98" />
      </g>
      <g
         transform="matrix(0.05571561,0,0,-0.05571561,-575.5319,457.85542)"
         id="g362">
        <path
           id="path364"
           style="fill:#f2d08b;fill-opacity:1;fill-rule:nonzero;stroke:none"
           d="m 13738.4,6319.65 1024.1,-316.33 1537.5,600.91 -975.8,205.04 -1585.8,-489.62" />
      </g>
      <g
         transform="matrix(0.05046028,0,0,-0.05046028,-575.5319,457.85542)"
         id="g366">
        <path
           id="path368"
           style="fill:#f2d08b;fill-opacity:1;fill-rule:nonzero;stroke:none"
           d="m 15169.2,6977.83 -321.3,-409.41 1116.7,-409.05 335.4,469.17 -1130.8,349.29" />
      </g>
      <g
         transform="matrix(0.05695527,0,0,-0.05695527,-575.5319,457.85542)"
         id="g370">
        <path
           id="path372"
           style="fill:#d3b875;fill-opacity:1;fill-rule:nonzero;stroke:none"
           d="m 14990.7,6661.06 374.1,137.82 935.2,-164.89 -354.8,-173.51 -954.5,200.58" />
      </g>
      <g
         transform="matrix(0.0540639,0,0,-0.0540639,-575.5319,457.85542)"
         id="g374">
        <path
           id="path376"
           style="fill:#d3b875;fill-opacity:1;fill-rule:nonzero;stroke:none"
           d="m 14631.7,6366.53 1621.5,553.99 46.8,-9.83 -1614.1,-560.93 -54.2,16.77" />
      </g>
      <g
         transform="matrix(0.05052872,0,0,-0.05052872,-575.5319,457.85542)"
         id="g378">
        <path
           id="path380"
           style="fill:#d3b875;fill-opacity:1;fill-rule:nonzero;stroke:none"
           d="m 15148.6,6968.38 1129.3,-348.81 22.1,8.66 -1132.5,346.02 -18.9,-5.87" />
      </g>
      <g
         transform="matrix(0.05831629,0,0,-0.05831629,-575.5319,457.85542)"
         id="g382">
        <path
           id="path384"
           style="fill:#99744b;fill-opacity:1;fill-rule:nonzero;stroke:none"
           d="m 15455.6,5206 c 0,0 844.4,338.82 820,329.02 -24.4,-9.8 -644.4,148.76 -644.4,148.76 l -860.5,-266.24 684.9,-211.54" />
      </g>
      <g
         transform="matrix(0.05659473,0,0,-0.05659473,-575.5319,457.85542)"
         id="g386">
        <path
           id="path388"
           style="fill:#f2d08b;fill-opacity:1;fill-rule:nonzero;stroke:none"
           d="m 15220,5582.33 397.1,253.08 682.9,-161.13 -374.3,-309.93 -705.7,217.98" />
      </g>
      <g
         transform="matrix(0.0582288,0,0,-0.0582288,-575.5319,457.85542)"
         id="g390">
        <path
           id="path392"
           style="fill:#d3b875;fill-opacity:1;fill-rule:nonzero;stroke:none"
           d="M 15654.6,5692.29 H 15385 l 645.2,-160.97 269.8,11.99 -645.4,148.98" />
      </g>
      <g
         transform="matrix(0.05650019,0,0,-0.05650019,-575.5319,457.85542)"
         id="g394">
        <path
           id="path396"
           style="fill:#ffffff;fill-opacity:1;fill-rule:nonzero;stroke:none"
           d="m 16289.9,4795.2 c 0,-18.11 -13.4,-24.36 -32.7,-32.79 l -202.1,-102.08 c -27.3,-13.55 -32.8,14.67 -32.8,32.78 v 311.38 c 0,18.1 11.8,22.41 32.8,32.78 l 202.1,102.02 c 42.8,21.85 29.9,-22.6 32.7,-106.52 V 4795.2" />
      </g>
      <g
         transform="matrix(0.05630475,0,0,-0.05630475,-575.5319,457.85542)"
         id="g398">
        <path
           id="path400"
           style="fill:#4c402c;fill-opacity:1;fill-rule:nonzero;stroke:none"
           d="m 16098.7,4991.09 201.3,97.81 v -11.22 l -201.3,-101.25 v 14.66" />
      </g>
      <g
         transform="matrix(0.05630475,0,0,-0.05630475,-575.5319,457.85542)"
         id="g402">
        <path
           id="path404"
           style="fill:#4c402c;fill-opacity:1;fill-rule:nonzero;stroke:none"
           d="m 16098.7,4952.56 201.3,97.81 v -11.22 l -201.3,-101.19 v 14.6" />
      </g>
      <g
         transform="matrix(0.05630475,0,0,-0.05630475,-575.5319,457.85542)"
         id="g406">
        <path
           id="path408"
           style="fill:#4c402c;fill-opacity:1;fill-rule:nonzero;stroke:none"
           d="m 16098.7,4909.33 201.3,97.8 v -11.21 l -201.3,-101.19 v 14.6" />
      </g>
      <g
         transform="matrix(0.05607086,0,0,-0.05607086,-575.5319,457.85542)"
         id="g410">
        <path
           id="path412"
           style="fill:#4c402c;fill-opacity:1;fill-rule:nonzero;stroke:none"
           d="m 16170.6,4810.71 127.8,62.16 1.6,-11.76 -129.4,-65.06 v 14.66" />
      </g>
      <g
         transform="matrix(0.05607086,0,0,-0.05607086,-575.5319,457.85542)"
         id="g414">
        <path
           id="path416"
           style="fill:#4c402c;fill-opacity:1;fill-rule:nonzero;stroke:none"
           d="m 16170.6,4781.39 127.8,62.1 1.6,-11.76 -129.4,-65 v 14.66" />
      </g>
      <g
         transform="matrix(0.05607086,0,0,-0.05607086,-575.5319,457.85542)"
         id="g418">
        <path
           id="path420"
           style="fill:#4c402c;fill-opacity:1;fill-rule:nonzero;stroke:none"
           d="m 16170.6,4751.45 127.8,62.09 1.6,-11.76 -129.4,-64.99 v 14.66" />
      </g>
    </g>
    <g
       id="g22653"
       transform="translate(-671.02308,-31.829742)">
      <g
         transform="matrix(0.0635254,0,0,-0.0635254,-575.5319,457.85542)"
         id="g422">
        <path
           id="path424"
           style="fill:#d3b875;fill-opacity:1;fill-rule:nonzero;stroke:none"
           d="m 16300,694.168 -535.7,294.327 V 6344.2 L 16300,6149.65 V 694.168" />
      </g>
      <g
         transform="matrix(0.07079333,0,0,-0.07079333,-575.5319,457.85542)"
         id="g426">
        <path
           id="path428"
           style="fill:#b78c58;fill-opacity:1;fill-rule:nonzero;stroke:none"
           d="M 14626.6,5518.3 16300,5920.44 V 1380.95 L 14626.6,622.902 V 5518.3" />
      </g>
      <g
         transform="matrix(0.07079333,0,0,-0.07079333,-575.5319,457.85542)"
         id="g430">
        <path
           id="path432"
           style="fill:#f2d08b;fill-opacity:1;fill-rule:nonzero;stroke:none"
           d="m 14145.9,5692.88 480.7,-174.58 1673.4,402.14 -523,170.9 -1631.1,-398.46" />
      </g>
      <g
         transform="matrix(0.06300541,0,0,-0.06300541,-575.5319,457.85542)"
         id="g434">
        <path
           id="path436"
           style="fill:#ffffff;fill-opacity:1;fill-rule:nonzero;stroke:none"
           d="m 16008.8,1569.12 v -362.1 l 291.2,-126.88 v 418.03 l -291.2,70.95" />
      </g>
      <g
         transform="matrix(0.06290804,0,0,-0.06290804,-575.5319,457.85542)"
         id="g438">
        <path
           id="path440"
           style="fill:#4c402c;fill-opacity:1;fill-rule:nonzero;stroke:none"
           d="m 16048.5,1550.23 251.5,-64.15 v -13.41 l -251.5,65.11 v 12.45" />
      </g>
      <g
         transform="matrix(0.06290804,0,0,-0.06290804,-575.5319,457.85542)"
         id="g442">
        <path
           id="path444"
           style="fill:#4c402c;fill-opacity:1;fill-rule:nonzero;stroke:none"
           d="m 16048.5,1520.84 251.5,-64.21 v -13.4 l -251.5,65.11 v 12.5" />
      </g>
      <g
         transform="matrix(0.06290804,0,0,-0.06290804,-575.5319,457.85542)"
         id="g446">
        <path
           id="path448"
           style="fill:#4c402c;fill-opacity:1;fill-rule:nonzero;stroke:none"
           d="m 16048.5,1486.64 251.5,-64.21 v -13.35 l -251.5,65.05 v 12.51" />
      </g>
      <g
         transform="matrix(0.06290804,0,0,-0.06290804,-575.5319,457.85542)"
         id="g450">
        <path
           id="path452"
           style="fill:#4c402c;fill-opacity:1;fill-rule:nonzero;stroke:none"
           d="m 16048.5,1453.66 251.5,-64.21 v -13.4 l -251.5,65.11 v 12.5" />
      </g>
      <g
         transform="matrix(0.0624071,0,0,-0.0624071,-575.5319,457.85542)"
         id="g454">
        <path
           id="path456"
           style="fill:#4c402c;fill-opacity:1;fill-rule:nonzero;stroke:none"
           d="m 16177.4,1310.33 122.6,-37.99 -0.3,-15.26 -122.3,40.64 v 12.61" />
      </g>
      <g
         transform="matrix(0.0624071,0,0,-0.0624071,-575.5319,457.85542)"
         id="g458">
        <path
           id="path460"
           style="fill:#4c402c;fill-opacity:1;fill-rule:nonzero;stroke:none"
           d="m 16177.4,1288.29 122.6,-37.94 -0.3,-15.26 -122.3,40.65 v 12.55" />
      </g>
      <g
         transform="matrix(0.0624071,0,0,-0.0624071,-575.5319,457.85542)"
         id="g462">
        <path
           id="path464"
           style="fill:#4c402c;fill-opacity:1;fill-rule:nonzero;stroke:none"
           d="m 16177.4,1261.72 122.6,-37.99 -0.3,-15.26 -122.3,40.64 v 12.61" />
      </g>
      <g
         transform="matrix(0.06773475,0,0,-0.06773475,-575.5319,457.85542)"
         id="g466">
        <path
           id="path468"
           style="fill:#987848;fill-opacity:1;fill-rule:nonzero;stroke:none"
           d="m 16098.7,1028.36 -5.1,1198.57 203.2,71.72 3.2,-1185.24 -201.3,-85.05 m -6.1,1428.62 -9.1,2148.75 206.9,66.72 5.7,-2144.49 -203.5,-70.98" />
      </g>
      <g
         transform="matrix(0.06548297,0,0,-0.06548297,-575.5319,457.85542)"
         id="g470">
        <path
           id="path472"
           style="fill:#b5a68b;fill-opacity:1;fill-rule:nonzero;stroke:none"
           d="m 16138.5,6361.07 v 0 l 161.5,39.46 -161.5,-39.46" />
      </g>
      <g
         transform="matrix(0.06769277,0,0,-0.06769277,-575.5319,457.85542)"
         id="g474">
        <path
           id="path476"
           style="fill:#987848;fill-opacity:1;fill-rule:nonzero;stroke:none"
           d="m 16092.7,4799.08 -4.9,1154.55 -11.5,4.81 220.6,53 3.1,-1149.51 -207.3,-62.85" />
      </g>
      <g
         transform="matrix(0.06767972,0,0,-0.06767972,-575.5319,457.85542)"
         id="g478">
        <path
           id="path480"
           style="fill:#b0935c;fill-opacity:1;fill-rule:nonzero;stroke:none"
           d="m 16079.4,5959.59 -464.7,195.04 156.3,38.17 529,-180.2 -220.6,-53.01" />
      </g>
      <g
         transform="matrix(0.0635254,0,0,-0.0635254,-575.5319,457.85542)"
         id="g482">
        <path
           id="path484"
           style="fill:#a48a53;fill-opacity:1;fill-rule:nonzero;stroke:none"
           d="m 16299.2,4636.54 -534.9,214.53 v 168.65 l 535.7,-162.88 v -220.02 l -0.8,-0.28" />
      </g>
      <g
         transform="matrix(0.06683517,0,0,-0.06683517,-575.5319,457.85542)"
         id="g486">
        <path
           id="path488"
           style="fill:#987848;fill-opacity:1;fill-rule:nonzero;stroke:none"
           d="m 15492.8,4407.19 v 209.13 l 806.4,244.33 0.8,-192.92 -807.2,-260.54" />
      </g>
      <g
         transform="matrix(0.07079333,0,0,-0.07079333,-575.5319,457.85542)"
         id="g490">
        <path
           id="path492"
           style="fill:#987848;fill-opacity:1;fill-rule:nonzero;stroke:none"
           d="m 15586.6,4470.59 -0.5,178.4 713.9,216.32 v -164.44 l -713.4,-230.28" />
      </g>
      <g
         transform="matrix(0.06769488,0,0,-0.06769488,-575.5319,457.85542)"
         id="g494">
        <path
           id="path496"
           style="fill:#8c7041;fill-opacity:1;fill-rule:nonzero;stroke:none"
           d="m 16093,4608.45 -0.8,190.48 207.3,62.85 0.5,-186.57 -207,-66.76" />
      </g>
      <g
         transform="matrix(0.0635254,0,0,-0.0635254,-575.5319,457.85542)"
         id="g498">
        <path
           id="path500"
           style="fill:#a48a53;fill-opacity:1;fill-rule:nonzero;stroke:none"
           d="m 16300,2071.06 -535.7,249.13 v 208.19 l 535.7,-208.19 v -249.13" />
      </g>
      <g
         transform="matrix(0.07079333,0,0,-0.07079333,-575.5319,457.85542)"
         id="g502">
        <path
           id="path504"
           style="fill:#987848;fill-opacity:1;fill-rule:nonzero;stroke:none"
           d="m 14626.6,1858.44 v 0 223.55 l 770.8,268.84 0.9,-220.11 -771.7,-272.28 m 966.1,340.9 -0.6,219.41 707.9,246.92 V 2448.9 l -707.3,-249.56" />
      </g>
      <g
         transform="matrix(0.06772134,0,0,-0.06772134,-575.5319,457.85542)"
         id="g506">
        <path
           id="path508"
           style="fill:#8c7041;fill-opacity:1;fill-rule:nonzero;stroke:none"
           d="m 16096.8,2227.37 -1,230.09 203.6,71.01 0.6,-229.37 -203.2,-71.73" />
      </g>
    </g>
    <g
       id="g22526"
       transform="translate(-801.04689,69.46788)">
      <g
         transform="matrix(0.04244411,0,0,-0.04244411,-575.5319,457.85542)"
         id="g510">
        <path
           id="path512"
           style="fill:#b78c58;fill-opacity:1;fill-rule:nonzero;stroke:none"
           d="m 15404.7,4270.65 895.3,708.4 -9.1,-1526.5 -886.2,-1028.81 v 1846.91" />
      </g>
      <g
         transform="matrix(0.04011295,0,0,-0.04011295,-575.5319,457.85542)"
         id="g514">
        <path
           id="path516"
           style="fill:#d3b875;fill-opacity:1;fill-rule:nonzero;stroke:none"
           d="m 16300,2564.61 -2947.9,241.94 V 4624.93 L 16300,4518.87 V 2564.61" />
      </g>
      <g
         transform="matrix(0.04244411,0,0,-0.04244411,-575.5319,457.85542)"
         id="g518">
        <path
           id="path520"
           style="fill:#99744b;fill-opacity:1;fill-rule:nonzero;stroke:none"
           d="m 12618.7,4370.81 1200.1,659.44 2481.2,-51.2 -895.3,-708.4 -2786,100.16" />
      </g>
      <g
         transform="matrix(0.03598334,0,0,-0.03598334,-575.5319,457.85542)"
         id="g522">
        <path
           id="path524"
           style="fill:#d3b875;fill-opacity:1;fill-rule:nonzero;stroke:none"
           d="M 8956.07,1757.94 16300,1402.75 V 2411.76 L 8956.07,2725 v -967.06" />
      </g>
      <g
         transform="matrix(0.03915975,0,0,-0.03915975,-575.5319,457.85542)"
         id="g526">
        <path
           id="path528"
           style="fill:#b78c58;fill-opacity:1;fill-rule:nonzero;stroke:none"
           d="M 14977.9,2216.14 16300,3354.12 v -800.15 l -1322.1,-1265 v 927.17" />
      </g>
      <g
         transform="matrix(0.03915975,0,0,-0.03915975,-575.5319,457.85542)"
         id="g530">
        <path
           id="path532"
           style="fill:#f2d08b;fill-opacity:1;fill-rule:nonzero;stroke:none"
           d="M 14977.9,2216.14 16300,3354.12 10354.5,3533.49 8229.63,2503.97 14977.9,2216.14" />
      </g>
      <path
         id="path534"
         style="fill:#4c402c;fill-opacity:1;fill-rule:nonzero;stroke:none;stroke-width:0.0352778"
         d="m -36.684977,388.52753 v -6.06425 h -7.941028 v 6.06425 c 0,1.99672 1.471083,3.64772 3.390194,3.92994 v 5.46453 c -1.04775,0.13758 -1.979083,0.63853 -2.659944,1.37583 h 6.480528 c -0.684389,-0.7373 -1.612195,-1.23825 -2.659945,-1.37583 v -5.46453 c 1.919111,-0.28222 3.390195,-1.93322 3.390195,-3.92994" />
      <path
         id="path536"
         style="fill:#4c402c;fill-opacity:1;fill-rule:nonzero;stroke:none;stroke-width:0.0352778"
         d="m -25.434893,383.62744 v -1.48166 h -0.388056 v 1.48166 c -3.372555,0.0882 -6.226528,2.44123 -7.298972,5.70442 h 0.01764 c 0.201083,-0.42333 0.635,-0.71967 1.139472,-0.71967 0.504472,0 0.938389,0.29634 1.139472,0.71967 h 0.243417 c 0.204611,-0.42333 0.638528,-0.71967 1.143,-0.71967 0.500944,0 0.934861,0.29634 1.139472,0.71967 h 0.243417 c 0.204611,-0.42333 0.638528,-0.71967 1.139472,-0.71967 0.465667,0 0.874889,0.254 1.093611,0.62795 v 6.858 l -0.186972,0.004 c 0,0 -0.211667,2.37772 0.638528,2.97744 0.564444,0.39864 1.605139,0.23989 1.950861,-0.34925 0.388056,-0.65617 0.402167,-1.28058 0.06703,-1.20297 -0.335139,0.0776 -0.155222,0.88547 -0.645583,1.10772 -0.599723,0.26811 -1.121834,0.0635 -1.199445,-0.65617 -0.07408,-0.72319 -0.01764,-1.89441 -0.01764,-1.89441 l -0.218722,0.004 v -6.9215 c 0.229305,-0.33513 0.610305,-0.55386 1.044222,-0.55386 0.504472,0 0.938389,0.29634 1.139472,0.71967 h 0.194028 c 0.201084,-0.42333 0.635,-0.71967 1.139473,-0.71967 0.504472,0 0.938388,0.29634 1.139472,0.71967 h 0.243417 c 0.204611,-0.42333 0.638527,-0.71967 1.143,-0.71967 0.500944,0 0.934861,0.29634 1.139472,0.71967 h 0.116417 c -1.072445,-3.26319 -3.926417,-5.61622 -7.298973,-5.70442" />
      <path
         id="path538"
         style="fill:#4c402c;fill-opacity:1;fill-rule:nonzero;stroke:none;stroke-width:0.0352778"
         d="m -9.4046699,386.0228 -3.1855831,-3.82411 -3.182056,3.82411 h 2.003778 v 11.17601 h 2.356555 V 386.0228 h 2.0073061" />
      <path
         id="path540"
         style="fill:#4c402c;fill-opacity:1;fill-rule:nonzero;stroke:none;stroke-width:0.0352778"
         d="m -2.4020306,386.0228 -3.1820557,-3.82411 -3.1855836,3.82411 h 2.0073057 v 11.17601 h 2.3565557 V 386.0228 h 2.0037779" />
      <path
         id="path542"
         style="fill:#4c402c;fill-opacity:1;fill-rule:nonzero;stroke:none;stroke-width:0.0352778"
         d="M -2.7653917,399.24492 H -15.408948 v -0.92781 h 12.6435563 v 0.92781" />
      <g
         transform="matrix(0.03559211,0,0,-0.03559211,-575.5319,457.85542)"
         id="g544">
        <path
           id="path546"
           style="fill:#4c402c;fill-opacity:1;fill-rule:nonzero;stroke:none"
           d="m 16300,4234.68 v 170.48 h -223.1 v -170.48 c 0,-56.1 41.3,-102.49 95.2,-110.42 v -153.43 c -29.4,-3.87 -55.6,-18.04 -74.7,-38.76 h 182.1 c -19.2,20.72 -45.3,34.89 -74.7,38.76 v 153.43 c 53.9,7.93 95.2,54.32 95.2,110.42" />
      </g>
      <g
         transform="matrix(0.03673017,0,0,-0.03673017,-575.5319,457.85542)"
         id="g548">
        <path
           id="path550"
           style="fill:#4c402c;fill-opacity:1;fill-rule:nonzero;stroke:none"
           d="m 16101.3,4236.98 v 40.25 h -10.6 v -40.25 c -91.8,-2.4 -169.5,-66.56 -198.7,-155.4 h 0.5 c 5.5,11.62 17.3,19.59 31,19.59 13.7,0 25.5,-7.97 31,-19.59 h 6.6 c 5.6,11.62 17.4,19.59 31.2,19.59 13.6,0 25.4,-7.97 31,-19.59 h 6.6 c 5.6,11.62 17.4,19.59 31,19.59 12.8,0 23.9,-6.81 29.8,-17.09 v -186.72 l -5,-0.09 c 0,0 -5.8,-64.74 17.3,-80.97 15.5,-10.85 43.7,-6.63 53.1,9.41 10.6,17.87 11,34.96 1.9,32.85 -9.2,-2.11 -4.3,-24.2 -17.6,-30.16 -16.4,-7.39 -30.6,-1.82 -32.7,17.87 -2,19.59 -0.5,51.57 -0.5,51.57 l -5.9,-0.19 v 188.54 c 6.2,9.03 16.6,14.98 28.4,14.98 13.7,0 25.6,-7.97 31,-19.59 h 5.3 c 5.5,11.62 17.3,19.59 31,19.59 13.8,0 25.6,-7.97 31.1,-19.59 h 6.6 c 5.6,11.62 17.4,19.59 31.1,19.59 13.6,0 25.5,-7.97 31,-19.59 h 3.2 c -29.2,88.84 -106.9,153 -198.7,155.4" />
      </g>
      <g
         transform="matrix(0.03726568,0,0,-0.03726568,-575.5319,457.85542)"
         id="g552">
        <path
           id="path554"
           style="fill:#4c402c;fill-opacity:1;fill-rule:nonzero;stroke:none"
           d="m 16300,4111.8 -85.5,102.53 -85.4,-102.53 h 53.8 v -299.99 h 63.2 v 299.99 h 53.9" />
      </g>
      <g
         transform="matrix(0.03769537,0,0,-0.03769537,-575.5319,457.85542)"
         id="g556">
        <path
           id="path558"
           style="fill:#4c402c;fill-opacity:1;fill-rule:nonzero;stroke:none"
           d="m 16300,4064.94 -84.4,101.35 -84.5,-101.35 h 53.2 v -296.58 h 62.5 v 296.58 h 53.2" />
      </g>
      <g
         transform="matrix(0.03767314,0,0,-0.03767314,-575.5319,457.85542)"
         id="g560">
        <path
           id="path562"
           style="fill:#4c402c;fill-opacity:1;fill-rule:nonzero;stroke:none"
           d="m 16300,3716.28 h -335.6 V 3741 h 335.6 v -24.72" />
      </g>
      <path
         id="path564"
         style="fill:#b5a68b;fill-opacity:1;fill-rule:nonzero;stroke:none;stroke-width:0.0352778"
         d="m -137.78404,400.18331 -11.82158,-0.5715 11.82158,0.5715 v 0" />
      <path
         id="path566"
         style="fill:#a48a53;fill-opacity:1;fill-rule:nonzero;stroke:none;stroke-width:0.0352778"
         d="m -137.78404,400.18331 -11.82158,-0.5715 -4.30742,-0.20814 v -35.36598 l 17.75531,0.75495 -1.21709,0.94897 -0.40922,34.4417" />
      <path
         id="path568"
         style="fill:#b0935c;fill-opacity:1;fill-rule:nonzero;stroke:none;stroke-width:0.0352778"
         d="m -136.15773,364.79264 -17.75531,-0.75495 28.15167,-19.35692 14.55914,0.69498 -24.9555,19.41689" />
      <path
         id="path570"
         style="fill:#b5a68b;fill-opacity:1;fill-rule:nonzero;stroke:none;stroke-width:0.0352778"
         d="m -81.396036,322.15944 -11.116028,-0.33514 0.119944,-0.0847 10.996084,0.41981" />
      <path
         id="path572"
         style="fill:#b0935c;fill-opacity:1;fill-rule:nonzero;stroke:none;stroke-width:0.0352778"
         d="m -102.64031,338.7153 -13.77951,-0.45508 23.907756,-16.43592 11.116028,0.33514 h 0.03528 l -21.279554,16.55586" />
      <g
         transform="matrix(0.0379469,0,0,-0.0379469,-575.5319,457.85542)"
         id="g574">
        <path
           id="path576"
           style="fill:#987848;fill-opacity:1;fill-rule:nonzero;stroke:none"
           d="m 16033,1881.64 v 901.5 l 267,229.81 v -875.84 l -267,-255.47" />
      </g>
      <g
         transform="matrix(0.0379469,0,0,-0.0379469,-575.5319,457.85542)"
         id="g578">
        <path
           id="path580"
           style="fill:#b0935c;fill-opacity:1;fill-rule:nonzero;stroke:none"
           d="m 16033,2783.14 v 0 l -3796.7,181.01 225.7,175.51 3838,-126.71 -267,-229.81 m -4180.3,199.32 -2310.43,110.07 277.32,134.43 2279.21,-75.3 -246.1,-169.2" />
      </g>
      <path
         id="path582"
         style="fill:#967b49;fill-opacity:1;fill-rule:nonzero;stroke:none;stroke-width:0.0352778"
         d="m -111.20223,345.37575 -14.55914,-0.69498 9.34155,-6.42055 13.77951,0.45508 -8.56192,6.66045" />
      <g
         transform="matrix(0.04403796,0,0,-0.04403796,-575.5319,457.85542)"
         id="g584">
        <path
           id="path586"
           style="fill:#f2d08b;fill-opacity:1;fill-rule:nonzero;stroke:none"
           d="m 14847.2,4116.09 717.5,-746.92 735.3,746.92 -589.9,682.76 -862.9,-682.76" />
      </g>
      <g
         transform="matrix(0.03933508,0,0,-0.03933508,-575.5319,457.85542)"
         id="g588">
        <path
           id="path590"
           style="fill:#f2d08b;fill-opacity:1;fill-rule:nonzero;stroke:none"
           d="m 13616.2,4716.3 1557.9,214.79 c 0,0 1125.9,666.64 1091.6,646.19 -34.3,-20.45 -1354.6,-149.42 -1354.6,-149.42 L 13616.2,4716.3" />
      </g>
    </g>
    <g
       id="g22585"
       transform="translate(-911.41594,-133.12736)">
      <path
         id="path592"
         style="fill:#d3b875;fill-opacity:1;fill-rule:nonzero;stroke:none;stroke-width:0.0352778"
         d="m -101.45851,180.45565 -83.42842,-38.02239 V 52.242089 l 83.42842,25.76689 V 180.45565" />
      <g
         transform="matrix(0.03676756,0,0,-0.03676756,-575.5319,457.85542)"
         id="g594">
        <path
           id="path596"
           style="fill:#b78c58;fill-opacity:1;fill-rule:nonzero;stroke:none"
           d="M 16300,9194.97 12893.8,7544.67 V 10331 L 16300,11662.2 V 9194.97" />
      </g>
      <g
         transform="matrix(0.03676756,0,0,-0.03676756,-575.5319,457.85542)"
         id="g598">
        <path
           id="path600"
           style="fill:#99744b;fill-opacity:1;fill-rule:nonzero;stroke:none"
           d="m 10624.7,11031.8 2269.1,-700.8 3406.2,1331.2 -2161.9,454.3 -3513.4,-1084.7" />
      </g>
      <path
         id="path602"
         style="fill:#f2d08b;fill-opacity:1;fill-rule:nonzero;stroke:none;stroke-width:0.0352778"
         d="m -184.66115,52.157422 -23.70667,30.204835 82.38773,30.176613 24.74736,-34.614557 -83.42842,-25.766891" />
      <path
         id="path604"
         style="fill:#d3b875;fill-opacity:1;fill-rule:nonzero;stroke:none;stroke-width:0.0352778"
         d="m -184.88693,52.242089 83.42842,25.76689 1.626307,-0.635 -83.661257,-25.562279 -1.39347,0.430389" />
      <g
         transform="matrix(0.03676756,0,0,-0.03676756,-575.5319,457.85542)"
         id="g606">
        <path
           id="path608"
           style="fill:#f2d08b;fill-opacity:1;fill-rule:nonzero;stroke:none"
           d="m 12893.8,10331 -702.4,721.6 3344.2,1175.3 764.4,-565.7 -3406.2,-1331.2" />
      </g>
      <path
         id="path610"
         style="fill:#d3b875;fill-opacity:1;fill-rule:nonzero;stroke:none;stroke-width:0.0352778"
         d="M -184.88693,52.242089 -142.35957,46.308366 -22.796115,8.2648083 -55.706756,12.360559 -184.88693,52.242089" />
      <path
         id="path612"
         style="fill:#ffffff;fill-opacity:1;fill-rule:nonzero;stroke:none;stroke-width:0.0352778"
         d="m -69.49684,154.15254 c 0,1.49578 -1.114778,2.00731 -2.709334,2.70933 l -16.693445,8.42786 c -2.257778,1.12184 -2.705806,-1.21355 -2.705806,-2.70933 v -25.7175 c 0,-1.49578 0.973667,-1.85208 2.705806,-2.70933 l 16.693445,-8.42787 c 3.534834,-1.80269 2.4765,1.8662 2.709334,8.79828 v 19.62856" />
      <path
         id="path614"
         style="fill:#4c402c;fill-opacity:1;fill-rule:nonzero;stroke:none;stroke-width:0.0352778"
         d="m -89.894453,139.39584 16.566446,-8.05391 v 0.9278 l -16.566446,8.32909 v -1.20298" />
      <path
         id="path616"
         style="fill:#4c402c;fill-opacity:1;fill-rule:nonzero;stroke:none;stroke-width:0.0352778"
         d="m -89.894453,142.56732 16.566446,-8.05392 v 0.92428 l -16.566446,8.33261 v -1.20297" />
      <path
         id="path618"
         style="fill:#4c402c;fill-opacity:1;fill-rule:nonzero;stroke:none;stroke-width:0.0352778"
         d="m -89.894453,146.12332 16.566446,-8.05039 v 0.92428 l -16.566446,8.33261 v -1.2065" />
      <path
         id="path620"
         style="fill:#4c402c;fill-opacity:1;fill-rule:nonzero;stroke:none;stroke-width:0.0352778"
         d="m -89.502869,155.88821 10.473972,-5.09411 0.127001,0.96308 -10.600973,5.334 v -1.20297" />
      <path
         id="path622"
         style="fill:#4c402c;fill-opacity:1;fill-rule:nonzero;stroke:none;stroke-width:0.0352778"
         d="m -89.502869,158.29415 10.473972,-5.09058 0.127001,0.95955 -10.600973,5.334 v -1.20297" />
      <path
         id="path624"
         style="fill:#4c402c;fill-opacity:1;fill-rule:nonzero;stroke:none;stroke-width:0.0352778"
         d="m -89.502869,160.74596 10.473972,-5.09059 0.127001,0.96309 -10.600973,5.33047 v -1.20297" />
      <path
         id="path626"
         style="fill:#ffffff;fill-opacity:1;fill-rule:nonzero;stroke:none;stroke-width:0.0352778"
         d="m -42.855061,143.24112 c 0,1.49578 -1.114778,2.00731 -2.705806,2.70581 l -16.696973,8.42786 c -2.25425,1.12183 -2.705806,-1.21003 -2.705806,-2.70581 v -25.72103 c 0,-1.49577 0.973667,-1.84855 2.705806,-2.7058 l 16.696973,-8.42786 c 3.531306,-1.80623 2.472973,1.86266 2.705806,8.79828 v 19.62855" />
      <path
         id="path628"
         style="fill:#4c402c;fill-opacity:1;fill-rule:nonzero;stroke:none;stroke-width:0.0352778"
         d="m -63.252673,128.48443 16.566445,-8.05392 v 0.92428 l -16.566445,8.33261 v -1.20297" />
      <path
         id="path630"
         style="fill:#4c402c;fill-opacity:1;fill-rule:nonzero;stroke:none;stroke-width:0.0352778"
         d="m -63.252673,131.65237 16.566445,-8.05039 v 0.92428 l -16.566445,8.32908 v -1.20297" />
      <path
         id="path632"
         style="fill:#4c402c;fill-opacity:1;fill-rule:nonzero;stroke:none;stroke-width:0.0352778"
         d="m -63.252673,135.2119 16.566445,-8.05392 v 0.92781 l -16.566445,8.32908 v -1.20297" />
      <path
         id="path634"
         style="fill:#4c402c;fill-opacity:1;fill-rule:nonzero;stroke:none;stroke-width:0.0352778"
         d="m -62.86109,144.97326 10.473973,-5.09058 0.127,0.96308 -10.600973,5.33047 v -1.20297" />
      <path
         id="path636"
         style="fill:#4c402c;fill-opacity:1;fill-rule:nonzero;stroke:none;stroke-width:0.0352778"
         d="m -62.86109,147.37921 10.473973,-5.09059 0.127,0.96309 -10.600973,5.33047 v -1.20297" />
      <path
         id="path638"
         style="fill:#4c402c;fill-opacity:1;fill-rule:nonzero;stroke:none;stroke-width:0.0352778"
         d="m -62.86109,149.83454 10.473973,-5.09058 0.127,0.96308 -10.600973,5.33047 v -1.20297" />
    </g>
    <g
       id="g22441"
       transform="translate(-1042.9517,-57.532123)">
      <path
         id="path672"
         style="fill:#d3b875;fill-opacity:1;fill-rule:nonzero;stroke:none;stroke-width:0.0352778"
         d="m -540.12359,301.96997 v 63.15428 l 135.61131,32.50142 v -68.29779 l -135.61131,-27.35791" />
      <path
         id="path674"
         style="fill:#b78c58;fill-opacity:1;fill-rule:nonzero;stroke:none;stroke-width:0.0352778"
         d="m -404.51228,329.32788 51.24027,-32.97414 v 55.77417 l -51.24027,45.49776 v -68.29779" />
      <path
         id="path676"
         style="fill:#99744b;fill-opacity:1;fill-rule:nonzero;stroke:none;stroke-width:0.0352778"
         d="m -540.12359,301.96997 60.16766,-25.05781 126.68392,19.44158 -51.24027,32.97414 -135.61131,-27.35791" />
      <path
         id="path678"
         style="fill:#b78c58;fill-opacity:1;fill-rule:nonzero;stroke:none;stroke-width:0.0352778"
         d="m -479.95593,276.91216 v 37.66608 l -60.16766,-12.60827 z" />
      <path
         id="path680"
         style="fill:#f2d08b;fill-opacity:1;fill-rule:nonzero;stroke:none;stroke-width:0.0352778"
         d="m -479.95593,276.91216 34.9303,-46.9512 127.67416,11.08781 -35.92054,55.30497 -126.68392,-19.44158" />
      <path
         id="path682"
         style="fill:#d3b875;fill-opacity:1;fill-rule:nonzero;stroke:none;stroke-width:0.0352778"
         d="m -353.27201,296.35374 -0.19226,-21.50533 30.49799,-46.48906 5.61481,12.68942 -35.92054,55.30497" />
      <path
         id="path684"
         style="fill:#b78c58;fill-opacity:1;fill-rule:nonzero;stroke:none;stroke-width:0.0352778"
         d="m -445.02563,229.96096 114.46122,9.94128 7.59813,-11.54289 -123.73152,-9.60614 1.67217,11.20775" />
      <path
         id="path686"
         style="fill:#d3b875;fill-opacity:1;fill-rule:nonzero;stroke:none;stroke-width:0.0352778"
         d="m -479.95593,276.91216 1.95863,-17.81175 31.2995,-40.3472 1.67217,11.20775 -34.9303,46.9512" />
      <path
         id="path688"
         style="fill:#846342;fill-opacity:1;fill-rule:nonzero;stroke:none;stroke-width:0.0352778"
         d="m -387.80719,340.41216 c 0,3.72534 -1.6129,6.74864 -3.60222,6.74864 -1.98966,0 -3.60256,-3.0233 -3.60256,-6.74864 0,-3.72886 1.6129,-6.75216 3.60256,-6.75216 1.98932,0 3.60222,3.0233 3.60222,6.75216" />
      <path
         id="path690"
         style="fill:#846342;fill-opacity:1;fill-rule:nonzero;stroke:none;stroke-width:0.0352778"
         d="m -372.6381,329.74769 c 0,3.72533 -1.61255,6.74864 -3.60221,6.74864 -1.98967,0 -3.60257,-3.02331 -3.60257,-6.74864 0,-3.72886 1.6129,-6.74864 3.60257,-6.74864 1.98966,0 3.60221,3.01978 3.60221,6.74864" />
      <path
         id="path692"
         style="fill:#846342;fill-opacity:1;fill-rule:nonzero;stroke:none;stroke-width:0.0352778"
         d="m -360.74384,320.32147 c 0,3.72886 -1.6129,6.74864 -3.60222,6.74864 -1.98966,0 -3.60256,-3.01978 -3.60256,-6.74864 0,-3.72886 1.6129,-6.74864 3.60256,-6.74864 1.98932,0 3.60222,3.01978 3.60222,6.74864" />
    </g>
    <g
       transform="translate(-713.35641,-248.03212)"
       id="g1927">
      <g
         id="g1897"
         transform="matrix(0.06897829,0,0,-0.06897829,-575.5319,457.85542)">
        <path
           d="m 16295.7,7479.44 -1622,-751.76 10.2,1839.54 1616.1,517.1 -4.3,-1604.88"
           style="fill:#b78c58;fill-opacity:1;fill-rule:nonzero;stroke:none"
           id="path1895" />
      </g>
      <g
         id="g1901"
         transform="matrix(0.06895995,0,0,-0.06895995,-575.5319,457.85542)">
        <path
           d="m 13470.6,9012.88 1217.1,-443.41 1612.3,517.24 -1491.9,294.88 -1337.5,-368.71"
           style="fill:#99744b;fill-opacity:1;fill-rule:nonzero;stroke:none"
           id="path1899" />
      </g>
      <g
         id="g1905"
         transform="matrix(0.07068256,0,0,-0.07068256,-575.5319,457.85542)">
        <path
           d="m 14447.2,9152.95 561,279.7 1291.8,-279.7 -393,-287.68 -1459.8,287.68"
           style="fill:#f2d08b;fill-opacity:1;fill-rule:nonzero;stroke:none"
           id="path1903" />
      </g>
      <g
         id="g1909"
         transform="matrix(0.06897829,0,0,-0.06897829,-575.5319,457.85542)">
        <path
           d="m 14804.2,9379.11 v -784.73 l 321.4,114.54 1174.4,375.4 -1495.8,294.79"
           style="fill:#d3b875;fill-opacity:1;fill-rule:nonzero;stroke:none"
           id="path1907" />
      </g>
      <g
         id="g1913"
         transform="matrix(0.06213899,0,0,-0.06213899,-575.5319,457.85542)">
        <path
           d="m 16300,9510.14 -11.2,-2042 -1339.6,553.5 V 10002.2 L 16300,9510.14"
           style="fill:#d3b875;fill-opacity:1;fill-rule:nonzero;stroke:none"
           id="path1911" />
      </g>
      <g
         id="g1917"
         transform="matrix(0.07068256,0,0,-0.07068256,-575.5319,457.85542)">
        <path
           d="m 14329.8,8360.63 363.7,-645.27 1606.5,638.43 -393,511.48 -1577.2,-504.64"
           style="fill:#f2d08b;fill-opacity:1;fill-rule:nonzero;stroke:none"
           id="path1915" />
      </g>
      <g
         id="g1921"
         transform="matrix(0.06213899,0,0,-0.06213899,-575.5319,457.85542)">
        <path
           d="m 16300,9510.14 -420.8,-682.13 -1459,634.1 529,540.09 1350.8,-492.06"
           style="fill:#f2d08b;fill-opacity:1;fill-rule:nonzero;stroke:none"
           id="path1919" />
      </g>
      <g
         id="g1925"
         transform="matrix(0.06264805,0,0,-0.06264805,-575.5319,457.85542)">
        <path
           d="m 14827.7,9920.95 -394.8,644.15 1511.9,289.2 355.2,-527.5 -1472.3,-405.85"
           style="fill:#d3b875;fill-opacity:1;fill-rule:nonzero;stroke:none"
           id="path1923" />
      </g>
    </g>
    <rect
       ry="16.604441"
       rx="10.669775"
       y="35.012306"
       x="28.926905"
       height="150"
       width="150"
       id="rect2025"
       style="fill:#ececec;stroke:none;stroke-width:0.532416;stroke-linejoin:round" />
  </g>
  <g
     inkscape:label="Boxes"
     id="layer2"
     inkscape:groupmode="layer">
    <g
       transform="matrix(1.2570258,0,0,1.2570258,-3.7758709,3.2622149)"
       id="g2259">
      <g
         id="g1947"
         transform="translate(5.3453906,-54.790253)">
        <rect
           ry="6.2545319"
           rx="4.99999"
           y="156.48215"
           x="33.261906"
           height="29.314453"
           width="27.970238"
           id="rect833"
           style="fill:#b3b3b3;stroke:none;stroke-width:0.223688;stroke-linejoin:round" />
        <g
           style="fill:#e3dedb"
           id="g22671"
           transform="matrix(0.07639438,0,0,0.07639438,13.332436,179.57683)">
          <g
             style="fill:#e3dedb"
             transform="matrix(0.06897829,0,0,-0.06897829,-575.5319,457.85542)"
             id="g640">
            <path
               id="path642"
               style="fill:#e3dedb;fill-opacity:1;fill-rule:nonzero;stroke:none"
               d="m 16295.7,7479.44 -1622,-751.76 10.2,1839.54 1616.1,517.1 -4.3,-1604.88" />
          </g>
          <g
             style="fill:#e3dedb"
             transform="matrix(0.06895995,0,0,-0.06895995,-575.5319,457.85542)"
             id="g644">
            <path
               id="path646"
               style="fill:#e3dedb;fill-opacity:1;fill-rule:nonzero;stroke:none"
               d="m 13470.6,9012.88 1217.1,-443.41 1612.3,517.24 -1491.9,294.88 -1337.5,-368.71" />
          </g>
          <g
             style="fill:#e3dedb"
             transform="matrix(0.07068256,0,0,-0.07068256,-575.5319,457.85542)"
             id="g648">
            <path
               id="path650"
               style="fill:#e3dedb;fill-opacity:1;fill-rule:nonzero;stroke:none"
               d="m 14447.2,9152.95 561,279.7 1291.8,-279.7 -393,-287.68 -1459.8,287.68" />
          </g>
          <g
             style="fill:#e3dedb"
             transform="matrix(0.06897829,0,0,-0.06897829,-575.5319,457.85542)"
             id="g652">
            <path
               id="path654"
               style="fill:#e3dedb;fill-opacity:1;fill-rule:nonzero;stroke:none"
               d="m 14804.2,9379.11 v -784.73 l 321.4,114.54 1174.4,375.4 -1495.8,294.79" />
          </g>
          <g
             style="fill:#e3dedb"
             transform="matrix(0.06213899,0,0,-0.06213899,-575.5319,457.85542)"
             id="g656">
            <path
               id="path658"
               style="fill:#e3dedb;fill-opacity:1;fill-rule:nonzero;stroke:none"
               d="m 16300,9510.14 -11.2,-2042 -1339.6,553.5 V 10002.2 L 16300,9510.14" />
          </g>
          <g
             style="fill:#e3dedb"
             transform="matrix(0.07068256,0,0,-0.07068256,-575.5319,457.85542)"
             id="g660">
            <path
               id="path662"
               style="fill:#e3dedb;fill-opacity:1;fill-rule:nonzero;stroke:none"
               d="m 14329.8,8360.63 363.7,-645.27 1606.5,638.43 -393,511.48 -1577.2,-504.64" />
          </g>
          <g
             style="fill:#e3dedb"
             transform="matrix(0.06213899,0,0,-0.06213899,-575.5319,457.85542)"
             id="g664">
            <path
               id="path666"
               style="fill:#e3dedb;fill-opacity:1;fill-rule:nonzero;stroke:none"
               d="m 16300,9510.14 -420.8,-682.13 -1459,634.1 529,540.09 1350.8,-492.06" />
          </g>
          <g
             style="fill:#e3dedb"
             transform="matrix(0.06264805,0,0,-0.06264805,-575.5319,457.85542)"
             id="g668">
            <path
               id="path670"
               style="fill:#e3dedb;fill-opacity:1;fill-rule:nonzero;stroke:none"
               d="m 14827.7,9920.95 -394.8,644.15 1511.9,289.2 355.2,-527.5 -1472.3,-405.85" />
          </g>
        </g>
      </g>
      <g
         id="g1985"
         transform="translate(70.962093,-54.790253)">
        <rect
           style="fill:#b3b3b3;stroke:none;stroke-width:0.223688;stroke-linejoin:round"
           id="rect1949"
           width="27.970238"
           height="29.314453"
           x="33.261906"
           y="156.48215"
           rx="4.99999"
           ry="6.2545319" />
        <g
           transform="matrix(0.07639438,0,0,0.07639438,13.332436,179.57683)"
           id="g1983"
           style="fill:#e3dedb">
          <g
             id="g1953"
             transform="matrix(0.06897829,0,0,-0.06897829,-575.5319,457.85542)"
             style="fill:#e3dedb">
            <path
               d="m 16295.7,7479.44 -1622,-751.76 10.2,1839.54 1616.1,517.1 -4.3,-1604.88"
               style="fill:#e3dedb;fill-opacity:1;fill-rule:nonzero;stroke:none"
               id="path1951" />
          </g>
          <g
             id="g1957"
             transform="matrix(0.06895995,0,0,-0.06895995,-575.5319,457.85542)"
             style="fill:#e3dedb">
            <path
               d="m 13470.6,9012.88 1217.1,-443.41 1612.3,517.24 -1491.9,294.88 -1337.5,-368.71"
               style="fill:#e3dedb;fill-opacity:1;fill-rule:nonzero;stroke:none"
               id="path1955" />
          </g>
          <g
             id="g1961"
             transform="matrix(0.07068256,0,0,-0.07068256,-575.5319,457.85542)"
             style="fill:#e3dedb">
            <path
               d="m 14447.2,9152.95 561,279.7 1291.8,-279.7 -393,-287.68 -1459.8,287.68"
               style="fill:#e3dedb;fill-opacity:1;fill-rule:nonzero;stroke:none"
               id="path1959" />
          </g>
          <g
             id="g1965"
             transform="matrix(0.06897829,0,0,-0.06897829,-575.5319,457.85542)"
             style="fill:#e3dedb">
            <path
               d="m 14804.2,9379.11 v -784.73 l 321.4,114.54 1174.4,375.4 -1495.8,294.79"
               style="fill:#e3dedb;fill-opacity:1;fill-rule:nonzero;stroke:none"
               id="path1963" />
          </g>
          <g
             id="g1969"
             transform="matrix(0.06213899,0,0,-0.06213899,-575.5319,457.85542)"
             style="fill:#e3dedb">
            <path
               d="m 16300,9510.14 -11.2,-2042 -1339.6,553.5 V 10002.2 L 16300,9510.14"
               style="fill:#e3dedb;fill-opacity:1;fill-rule:nonzero;stroke:none"
               id="path1967" />
          </g>
          <g
             id="g1973"
             transform="matrix(0.07068256,0,0,-0.07068256,-575.5319,457.85542)"
             style="fill:#e3dedb">
            <path
               d="m 14329.8,8360.63 363.7,-645.27 1606.5,638.43 -393,511.48 -1577.2,-504.64"
               style="fill:#e3dedb;fill-opacity:1;fill-rule:nonzero;stroke:none"
               id="path1971" />
          </g>
          <g
             id="g1977"
             transform="matrix(0.06213899,0,0,-0.06213899,-575.5319,457.85542)"
             style="fill:#e3dedb">
            <path
               d="m 16300,9510.14 -420.8,-682.13 -1459,634.1 529,540.09 1350.8,-492.06"
               style="fill:#e3dedb;fill-opacity:1;fill-rule:nonzero;stroke:none"
               id="path1975" />
          </g>
          <g
             id="g1981"
             transform="matrix(0.06264805,0,0,-0.06264805,-575.5319,457.85542)"
             style="fill:#e3dedb">
            <path
               d="m 14827.7,9920.95 -394.8,644.15 1511.9,289.2 355.2,-527.5 -1472.3,-405.85"
               style="fill:#e3dedb;fill-opacity:1;fill-rule:nonzero;stroke:none"
               id="path1979" />
          </g>
        </g>
      </g>
      <g
         id="g2162">
        <rect
           ry="6.2545319"
           rx="4.99999"
           y="101.69189"
           x="71.415649"
           height="29.314453"
           width="27.970238"
           id="rect1987"
           style="fill:#b3b3b3;stroke:none;stroke-width:0.223688;stroke-linejoin:round" />
        <g
           style="fill:#e3dedb"
           id="g2021"
           transform="matrix(0.07639438,0,0,0.07639438,51.486176,124.78658)">
          <g
             style="fill:#e3dedb"
             transform="matrix(0.06897829,0,0,-0.06897829,-575.5319,457.85542)"
             id="g1991">
            <path
               id="path1989"
               style="fill:#e3dedb;fill-opacity:1;fill-rule:nonzero;stroke:none"
               d="m 16295.7,7479.44 -1622,-751.76 10.2,1839.54 1616.1,517.1 -4.3,-1604.88" />
          </g>
          <g
             style="fill:#e3dedb"
             transform="matrix(0.06895995,0,0,-0.06895995,-575.5319,457.85542)"
             id="g1995">
            <path
               id="path1993"
               style="fill:#e3dedb;fill-opacity:1;fill-rule:nonzero;stroke:none"
               d="m 13470.6,9012.88 1217.1,-443.41 1612.3,517.24 -1491.9,294.88 -1337.5,-368.71" />
          </g>
          <g
             style="fill:#e3dedb"
             transform="matrix(0.07068256,0,0,-0.07068256,-575.5319,457.85542)"
             id="g1999">
            <path
               id="path1997"
               style="fill:#e3dedb;fill-opacity:1;fill-rule:nonzero;stroke:none"
               d="m 14447.2,9152.95 561,279.7 1291.8,-279.7 -393,-287.68 -1459.8,287.68" />
          </g>
          <g
             style="fill:#e3dedb"
             transform="matrix(0.06897829,0,0,-0.06897829,-575.5319,457.85542)"
             id="g2003">
            <path
               id="path2001"
               style="fill:#e3dedb;fill-opacity:1;fill-rule:nonzero;stroke:none"
               d="m 14804.2,9379.11 v -784.73 l 321.4,114.54 1174.4,375.4 -1495.8,294.79" />
          </g>
          <g
             style="fill:#e3dedb"
             transform="matrix(0.06213899,0,0,-0.06213899,-575.5319,457.85542)"
             id="g2007">
            <path
               id="path2005"
               style="fill:#e3dedb;fill-opacity:1;fill-rule:nonzero;stroke:none"
               d="m 16300,9510.14 -11.2,-2042 -1339.6,553.5 V 10002.2 L 16300,9510.14" />
          </g>
          <g
             style="fill:#e3dedb"
             transform="matrix(0.07068256,0,0,-0.07068256,-575.5319,457.85542)"
             id="g2011">
            <path
               id="path2009"
               style="fill:#e3dedb;fill-opacity:1;fill-rule:nonzero;stroke:none"
               d="m 14329.8,8360.63 363.7,-645.27 1606.5,638.43 -393,511.48 -1577.2,-504.64" />
          </g>
          <g
             style="fill:#e3dedb"
             transform="matrix(0.06213899,0,0,-0.06213899,-575.5319,457.85542)"
             id="g2015">
            <path
               id="path2013"
               style="fill:#e3dedb;fill-opacity:1;fill-rule:nonzero;stroke:none"
               d="m 16300,9510.14 -420.8,-682.13 -1459,634.1 529,540.09 1350.8,-492.06" />
          </g>
          <g
             style="fill:#e3dedb"
             transform="matrix(0.06264805,0,0,-0.06264805,-575.5319,457.85542)"
             id="g2019">
            <path
               id="path2017"
               style="fill:#e3dedb;fill-opacity:1;fill-rule:nonzero;stroke:none"
               d="m 14827.7,9920.95 -394.8,644.15 1511.9,289.2 355.2,-527.5 -1472.3,-405.85" />
          </g>
        </g>
      </g>
    </g>
  </g>
</svg>
