<svg xmlns="http://www.w3.org/2000/svg" xmlns:xlink="http://www.w3.org/1999/xlink" version="1.0" x="0px" y="0px" viewBox="0 0 100 125" enable-background="new 0 0 100 100" xml:space="preserve"><path fill="#000000" d="M66.721,29.854c4.096,0,7.428-3.332,7.428-7.429c0-4.095-3.332-7.426-7.428-7.426  c-4.095,0-7.427,3.331-7.427,7.426C59.294,26.521,62.626,29.854,66.721,29.854z M66.721,16.999c2.993,0,5.428,2.434,5.428,5.426  c0,2.993-2.435,5.429-5.428,5.429c-2.992,0-5.427-2.436-5.427-5.429C61.294,19.433,63.729,16.999,66.721,16.999z"/><path fill="#000000" d="M80.146,44.795c-1.192-5.702-6.521-13.602-13.425-13.602c-6.371,0-12.091,7.035-13.437,13.606L53.038,46  h27.359L80.146,44.795z M55.543,44c1.565-5.334,6.235-10.807,11.178-10.807c4.907,0,9.575,5.472,11.162,10.807H55.543z"/><path fill="#000000" d="M32.624,29.854c4.096,0,7.428-3.332,7.428-7.429c0-4.095-3.332-7.426-7.428-7.426  c-4.095,0-7.427,3.331-7.427,7.426C25.197,26.521,28.529,29.854,32.624,29.854z M32.624,16.999c2.993,0,5.428,2.434,5.428,5.426  c0,2.993-2.435,5.429-5.428,5.429c-2.992,0-5.427-2.436-5.427-5.429C27.197,19.433,29.632,16.999,32.624,16.999z"/><path fill="#000000" d="M32.624,31.193c-6.371,0-12.091,7.035-13.437,13.606L18.941,46h27.359l-0.252-1.205  C44.856,39.093,39.528,31.193,32.624,31.193z M21.446,44c1.565-5.334,6.235-10.807,11.178-10.807c4.907,0,9.575,5.472,11.162,10.807  H21.446z"/><path fill="#000000" d="M59.294,60.426c0,4.096,3.332,7.428,7.427,7.428c4.096,0,7.428-3.332,7.428-7.428  c0-4.095-3.332-7.427-7.428-7.427C62.626,52.999,59.294,56.331,59.294,60.426z M66.721,65.854c-2.992,0-5.427-2.435-5.427-5.428  c0-2.992,2.435-5.427,5.427-5.427c2.993,0,5.428,2.435,5.428,5.427C72.148,63.419,69.714,65.854,66.721,65.854z"/><path fill="#000000" d="M66.721,69.193c-6.371,0-12.091,7.035-13.437,13.606L53.038,84h27.359l-0.252-1.205  C78.953,77.093,73.625,69.193,66.721,69.193z M55.543,82c1.565-5.334,6.235-10.807,11.178-10.807c4.907,0,9.575,5.472,11.162,10.807  H55.543z"/><path fill="#000000" d="M40.052,60.426c0-4.095-3.332-7.427-7.428-7.427c-4.095,0-7.427,3.332-7.427,7.427  c0,4.096,3.332,7.428,7.427,7.428C36.72,67.854,40.052,64.521,40.052,60.426z M32.624,54.999c2.993,0,5.428,2.435,5.428,5.427  c0,2.993-2.435,5.428-5.428,5.428c-2.992,0-5.427-2.435-5.427-5.428C27.197,57.434,29.632,54.999,32.624,54.999z"/><path fill="#000000" d="M32.624,69.193c-6.371,0-12.091,7.035-13.437,13.606L18.941,84h27.359l-0.252-1.205  C44.856,77.093,39.528,69.193,32.624,69.193z M21.446,82c1.565-5.334,6.235-10.807,11.178-10.807c4.907,0,9.575,5.472,11.162,10.807  H21.446z"/><g><path fill="#000000" d="M84,93h-5v-2h5c1.654,0,3-1.346,3-3l2-0.047V88C89,90.757,86.757,93,84,93z M73,93H61v-2h12V93z M55,93H44   v-2h11V93z M38,93H26v-2h12V93z M20,93h-5c-2.757,0-5-2.243-5-5l0,0h2l0,0c0,1.654,1.346,3,3,3h5V93z M89,82h-2V70h2V82z M12,82h-2   V70h2V82z M89,65h-2V53h2V65z M12,65h-2V53h2V65z M89,47h-2V35h2V47z M12,47h-2V35h2V47z M89,30h-2V18h2V30z M12,30h-2V18h2V30z    M87,12.097C87,10.346,85.654,9,84,9h-5V7h5c2.757,0,5,2.243,5,5L87,12.097z M10,12.023V12c0-2.757,2.243-5,5-5h5v2h-5   c-1.654,0-3,1.346-3,3L10,12.023z M73,9H61V7h12V9z M55,9H44V7h11V9z M38,9H26V7h12V9z"/></g><text x="0" y="115" fill="#000000" font-size="5px" font-weight="bold" font-family="'Helvetica Neue', Helvetica, Arial-Unicode, Arial, Sans-serif">Created by Mundo</text><text x="0" y="120" fill="#000000" font-size="5px" font-weight="bold" font-family="'Helvetica Neue', Helvetica, Arial-Unicode, Arial, Sans-serif">from the Noun Project</text></svg>