<svg xmlns="http://www.w3.org/2000/svg" xmlns:cc="http://creativecommons.org/ns#" xmlns:dc="http://purl.org/dc/elements/1.1/" xmlns:rdf="http://www.w3.org/1999/02/22-rdf-syntax-ns#" version="1.1" viewBox="0 0 26.458 33.0725" x="0px" y="0px"><g transform="translate(0 -270.54)"><path d="m13.204 271.14c-6.8892 0-12.481 5.5922-12.481 12.481 0 6.8892 5.5922 12.482 12.481 12.482 6.8892 0 12.482-5.5924 12.482-12.482 0-6.8892-5.5924-12.481-12.482-12.481zm11.71 0.35058a0.35377 0.35377 0 0 0-0.2424 0.10975l-1.6727 1.7144a0.35377 0.35377 0 1 0 0.50652 0.49389l1.6727-1.7144a0.35377 0.35377 0 0 0-0.26412-0.60363zm-23.904 0.0657a0.35377 0.35377 0 0 0-0.23865 0.61018l1.7136 1.6727a0.35401 0.35401 0 0 0 0.49467-0.50651l-1.7144-1.6727a0.35377 0.35377 0 0 0-0.25523-0.10363zm12.194 0.29096c6.5069 0 11.774 5.2673 11.774 11.774s-5.2675 11.774-11.774 11.774c-6.5069 0-11.774-5.2675-11.774-11.774s5.2673-11.774 11.774-11.774zm-0.0057 0.80339a0.35377 0.35377 0 0 0-0.34761 0.35887v0.3097c-5.4038 0.18266-9.7585 4.5332-9.9481 9.9353h-0.4998a0.35377 0.35377 0 1 0 0 0.70726h0.49862c0.17609 5.4144 4.5366 9.7784 9.9493 9.9613v0.48639a0.35377 0.35377 0 1 0 0.70727 0v-0.48639c5.4126-0.18299 9.7724-4.547 9.9485-9.9613h0.49862a0.35377 0.35377 0 1 0 0-0.70726h-0.4998c-0.18953-5.402-4.5436-9.7525-9.9473-9.9353v-0.3097a0.35377 0.35377 0 0 0-0.35966-0.35887zm-0.34761 1.3762v0.49863a0.35377 0.35377 0 1 0 0.70727 0v-0.49863c5.0207 0.18147 9.0514 4.2086 9.2396 9.2276h-0.30853a0.35377 0.35377 0 1 0 0 0.70726h0.30952c-0.17489 5.0314-4.211 9.0719-9.2406 9.2537v-0.32195a0.35377 0.35377 0 0 0-0.35887-0.35886 0.35377 0.35377 0 0 0-0.3484 0.35886v0.32195c-5.0296-0.18172-9.0665-4.2222-9.2414-9.2536h0.30951a0.35377 0.35377 0 1 0 0-0.70726h-0.30853c0.18829-5.019 4.2197-9.0461 9.2404-9.2276zm0.3946 1.0948c-1.0312 0-1.8749 0.84369-1.8749 1.8749 0 0.5499 0.24144 1.0447 0.62179 1.3883-1.4701 0.34312-2.5659 1.6614-2.5659 3.2359v3.9599a0.35377 0.35377 0 0 0 0.35353 0.35372h1.1319v5.1911a0.35377 0.35377 0 0 0 0.17687 0.30577c0.4883 0.28139 1.0566 0.44394 1.6615 0.44394a0.35377 0.35377 0 0 0 0.35433-0.35433v-4.5965h0.28207v4.5965a0.35377 0.35377 0 0 0 0.35354 0.35433c0.60483 0 1.1739-0.16256 1.6623-0.44394a0.35377 0.35377 0 0 0 0.17686-0.30577v-5.1913h1.1315a0.35377 0.35377 0 0 0 0.35373-0.35373v-3.9599c0-1.5742-1.0959-2.8922-2.5657-3.2357 0.38032-0.34355 0.62159-0.8384 0.62159-1.3883 0-1.0312-0.84368-1.8749-1.8748-1.8749zm0 0.70727c0.64882 0 1.1668 0.51876 1.1668 1.1676s-0.51797 1.1668-1.1668 1.1668c-0.64884 0-1.1676-0.51797-1.1676-1.1668s0.51876-1.1676 1.1676-1.1676zm-0.49547 3.1751h0.98994c1.4556 0 2.6165 1.1609 2.6165 2.6165v3.6064h-0.77715v-2.6163a0.35377 0.35377 0 0 0-0.02432-0.13858 0.35377 0.35377 0 0 0-0.01444-0.0322 0.35377 0.35377 0 0 0-2e-4 -2e-4 0.35377 0.35377 0 0 0-0.01738-0.0304 0.35377 0.35377 0 0 0-1.99e-4 -2e-4 0.35377 0.35377 0 0 0-0.02052-0.0286 0.35377 0.35377 0 0 0-2.09e-4 -2e-4 0.35377 0.35377 0 0 0-0.02309-0.0262 0.35377 0.35377 0 0 0-1.99e-4 -2e-4 0.35377 0.35377 0 0 0-0.02584-0.0238 0.35377 0.35377 0 0 0-2e-4 -2e-4 0.35377 0.35377 0 0 0-0.05804-0.0397 0.35377 0.35377 0 0 0-2e-4 0 0.35377 0.35377 0 0 0-0.0152-8e-3 0.35377 0.35377 0 0 0-0.01681-9e-3 0.35377 0.35377 0 0 0-0.03316-0.0121 0.35377 0.35377 0 0 0-0.27419 0.028 0.35377 0.35377 0 0 0-0.03002 0.0185 0.35377 0.35377 0 0 0-0.07714 0.0723 0.35377 0.35377 0 0 0-0.02052 0.0286 0.35377 0.35377 0 0 0 0 2e-4 0.35377 0.35377 0 0 0-0.05567 0.20016v2.97a0.35377 0.35377 0 0 0 2e-4 4e-3v5.2813c-0.23791 0.11618-0.50506 0.16799-0.77753 0.20746v-4.5024a0.35377 0.35377 0 0 0-0.35433-0.35373h-0.98993a0.35377 0.35377 0 0 0-0.35374 0.35373v4.5024c-0.27263-0.0394-0.53929-0.0912-0.77734-0.20746v-8.196a0.35377 0.35377 0 0 0-0.07619-0.28307 0.35377 0.35377 0 0 0-0.0076-0.01 0.35377 0.35377 0 0 0-0.0076-9e-3 0.35377 0.35377 0 0 0-0.01282-0.0141 0.35377 0.35377 0 0 0-0.0019-2e-3 0.35377 0.35377 0 0 0-1.99e-4 -2.1e-4 0.35377 0.35377 0 0 0-2e-4 -2e-4 0.35377 0.35377 0 0 0-0.25267-0.10126 0.35377 0.35377 0 0 0-0.31504 0.20431 0.35377 0.35377 0 0 0-0.0038 0.01 0.35377 0.35377 0 0 0-0.0086 0.0223 0.35377 0.35377 0 0 0-0.0038 0.0128 0.35377 0.35377 0 0 0-0.0057 0.0217 0.35377 0.35377 0 0 0-0.0019 0.0114 0.35377 0.35377 0 0 0-0.0038 0.0211 0.35377 0.35377 0 0 0-0.0028 0.0238 0.35377 0.35377 0 0 0-6.08e-4 0.01 0.35377 0.35377 0 0 0-8.07e-4 0.0219v2.6165h-0.77813v-3.6064c0-1.4556 1.1609-2.6164 2.6165-2.6164zm10.971 14.715a0.35377 0.35377 0 0 0-0.23885 0.61034l1.7138 1.6727a0.3538 0.3538 0 1 0 0.49388-0.50672l-1.7138-1.6725a0.35377 0.35377 0 0 0-0.25503-0.10383zm-20.747 0.25286a0.35377 0.35377 0 0 0-0.2418 0.11054l-1.6727 1.7136a0.35407 0.35407 0 1 0 0.50672 0.49467l1.6725-1.7143a0.35377 0.35377 0 0 0-0.26472-0.60442z" color="#000000" color-rendering="auto" dominant-baseline="auto" image-rendering="auto" shape-rendering="auto" solid-color="#000000" style="font-feature-settings:normal;font-variant-alternates:normal;font-variant-caps:normal;font-variant-ligatures:normal;font-variant-numeric:normal;font-variant-position:normal;isolation:auto;mix-blend-mode:normal;paint-order:stroke fill markers;shape-padding:0;text-decoration-color:#000000;text-decoration-line:none;text-decoration-style:solid;text-indent:0;text-orientation:mixed;text-transform:none;white-space:normal;"/></g><text x="0" y="41.458" fill="#000000" font-size="5px" font-weight="bold" font-family="'Helvetica Neue', Helvetica, Arial-Unicode, Arial, Sans-serif">Created by Astoe Design</text><text x="0" y="46.458" fill="#000000" font-size="5px" font-weight="bold" font-family="'Helvetica Neue', Helvetica, Arial-Unicode, Arial, Sans-serif">from the Noun Project</text></svg>